<svg width="24" height="24" viewBox="0 0 24 24" fill="none" xmlns="http://www.w3.org/2000/svg">
<path fill-rule="evenodd" clip-rule="evenodd" d="M12 2.24976C11.6052 2.24976 11.2175 2.35405 10.876 2.55208C10.5351 2.74976 10.2524 3.03384 10.0563 3.37564L10.0553 3.37747L1.8067 17.625C1.60956 17.9664 1.5056 18.3537 1.50525 18.748C1.5049 19.1423 1.60817 19.5298 1.80471 19.8716C2.00125 20.2134 2.28416 20.4975 2.6251 20.6956C2.96604 20.8936 3.35304 20.9986 3.74733 21L3.74997 21H20.25L20.2526 21C20.6469 20.9986 21.0339 20.8936 21.3748 20.6956C21.7158 20.4975 21.9987 20.2134 22.1952 19.8716C22.3918 19.5298 22.495 19.1423 22.4947 18.748C22.4943 18.3537 22.3899 17.9657 22.1928 17.6242L13.9447 3.37747L13.9437 3.37573C13.7476 3.03389 13.4649 2.74978 13.124 2.55208C12.7825 2.35405 12.3947 2.24976 12 2.24976ZM11.6284 3.84969C11.7413 3.78423 11.8695 3.74976 12 3.74976C12.1305 3.74976 12.2586 3.78423 12.3715 3.84969C12.4844 3.91515 12.578 4.00927 12.6428 4.12252L20.8942 18.375C20.9599 18.4888 20.9946 18.6179 20.9947 18.7493C20.9948 18.8808 20.9604 19.0099 20.8949 19.1239C20.8293 19.2378 20.735 19.3325 20.6214 19.3985C20.508 19.4644 20.3794 19.4994 20.2482 19.5H3.75168C3.62058 19.4994 3.49192 19.4644 3.37853 19.3985C3.26489 19.3325 3.17058 19.2378 3.10507 19.1239C3.03956 19.0099 3.00513 18.8808 3.00525 18.7493C3.00537 18.618 3.04014 18.4887 3.10573 18.375L11.3553 4.12578L11.3572 4.12252C11.422 4.00926 11.5156 3.91515 11.6284 3.84969ZM12 8.5C12.4142 8.5 12.75 8.83579 12.75 9.25V13.25C12.75 13.6642 12.4142 14 12 14C11.5858 14 11.25 13.6642 11.25 13.25V9.25C11.25 8.83579 11.5858 8.5 12 8.5ZM13.125 16.375C13.125 16.9963 12.6213 17.5 12 17.5C11.3787 17.5 10.875 16.9963 10.875 16.375C10.875 15.7537 11.3787 15.25 12 15.25C12.6213 15.25 13.125 15.7537 13.125 16.375Z" fill="black"/>
</svg>
