<svg width="32" height="32" viewBox="0 0 32 32" fill="none" xmlns="http://www.w3.org/2000/svg">

        <path
            d="M12.3344 18.5778C13.1617 18.5778 13.8324 19.2485 13.8324 20.0758V26.502C13.8324 27.3293 13.1617 27.9999 12.3344 27.9999C11.5071 27.9999 10.8364 27.3293 10.8364 26.502V20.0758C10.8364 19.2486 11.5071 18.5779 12.3344 18.5779V18.5778Z"
            fill="currentColor" />
        <path
            d="M8.91453 10.8517C8.90959 10.9085 8.90527 10.966 8.90527 11.024V20.7603C8.90527 21.8074 9.73408 22.6509 10.763 22.6509H20.664C21.693 22.6509 22.5218 21.8072 22.5218 20.7603V11.024C22.5218 10.966 22.5197 10.9083 22.5149 10.8517H8.91453Z"
            fill="currentColor" />
        <path
            d="M19.0929 18.5778C19.9202 18.5778 20.5909 19.2485 20.5909 20.0758V26.5019C20.5909 27.3293 19.9202 27.9999 19.0929 27.9999C18.2657 27.9999 17.595 27.3293 17.595 26.5019V20.0758C17.595 19.2486 18.2657 18.5779 19.0929 18.5779V18.5778ZM6.49852 11.7182C7.32575 11.7182 7.99645 12.3889 7.99645 13.2162V19.6424C7.99645 20.4697 7.32575 21.1404 6.49852 21.1404C5.67119 21.1404 5.00049 20.4697 5.00049 19.6425V13.2163C5.00038 12.389 5.67108 11.7182 6.49852 11.7182ZM24.9291 11.7182C25.7563 11.7182 26.427 12.3889 26.427 13.2162V19.6424C26.427 20.4697 25.7563 21.1404 24.9291 21.1404C24.1017 21.1404 23.431 20.4697 23.431 19.6425V13.2163C23.431 12.389 24.1017 11.7182 24.9291 11.7182ZM8.95843 10.2122C9.00009 7.22158 11.6103 4.76956 14.9609 4.44641H16.4664C19.8172 4.76967 22.4272 7.22179 22.4688 10.2122H8.95843Z"
            fill="currentColor" />
        <path d="M9.47925 4.15778L11.0594 6.89486M21.9479 4.15778L20.3676 6.89486" stroke="black"
            stroke-width="0.315575" stroke-linecap="round" stroke-linejoin="round" />
        <path
            d="M13.7011 7.53214C13.7024 7.95017 13.3564 8.29004 12.9283 8.2912C12.5004 8.29225 12.1524 7.95438 12.1511 7.53634V7.53214C12.15 7.114 12.4959 6.77423 12.924 6.77307C13.3519 6.77192 13.6999 7.10969 13.7011 7.52793V7.53214ZM19.4862 7.53214C19.4875 7.95017 19.1415 8.29004 18.7134 8.2912C18.2855 8.29225 17.9375 7.95438 17.9362 7.53634V7.53214C17.9351 7.114 18.2811 6.77423 18.7091 6.77307C19.137 6.77192 19.485 7.10969 19.4862 7.52793V7.53214Z"
            fill="currentColor" class="text-white dark:invert" />

</svg>
