<svg width="24" height="24" viewBox="0 0 24 24" fill="none" xmlns="http://www.w3.org/2000/svg">
<path d="M17.5 12.25L20.5 15.25L17.5 18.25" stroke="black" stroke-width="1.5" stroke-linecap="round" stroke-linejoin="round"/>
<path d="M10.5 21.25L7.5 18.25L10.5 15.25" stroke="black" stroke-width="1.5" stroke-linecap="round" stroke-linejoin="round"/>
<line x1="18.75" y1="15.25" x2="14.25" y2="15.25" stroke="black" stroke-width="1.5" stroke-linecap="round"/>
<line x1="8.25" y1="18.25" x2="12.75" y2="18.25" stroke="black" stroke-width="1.5" stroke-linecap="round"/>
<path d="M17.5 12.25L20.5 15.25L17.5 18.25" stroke="black" stroke-width="1.5" stroke-linecap="round" stroke-linejoin="round"/>
<path d="M10.5 21.25L7.5 18.25L10.5 15.25" stroke="black" stroke-width="1.5" stroke-linecap="round" stroke-linejoin="round"/>
<path d="M20.5 15.25L14.25 15.25" stroke="black" stroke-width="1.5" stroke-linecap="round"/>
<path d="M7.5 18.25L12.75 18.25" stroke="black" stroke-width="1.5" stroke-linecap="round"/>
<path d="M7.99633 10.6824C7.64253 9.95414 7.44409 9.13643 7.44409 8.27237C7.44409 7.93148 7.47498 7.5978 7.53411 7.27399" stroke="black" stroke-width="1.5" stroke-linecap="round"/>
<path d="M5 14.5465C3.6719 13.9346 2.75 12.5918 2.75 11.0336C2.75 8.89863 4.48072 7.16791 6.61567 7.16791C6.93189 7.16791 7.23924 7.20588 7.53341 7.27751C8.00189 4.70242 10.2561 2.75 12.9664 2.75C16.0163 2.75 18.4888 5.22246 18.4888 8.27239C18.4888 8.46218 18.4792 8.64974 18.4605 8.8346C19.7862 8.94166 20.8715 9.89999 21.169 11.1624" stroke="black" stroke-width="1.5" stroke-linecap="round"/>
</svg>
