<svg width="24" height="24" viewBox="0 0 24 24" fill="none" xmlns="http://www.w3.org/2000/svg">
<path fill-rule="evenodd" clip-rule="evenodd" d="M14.5303 5.46967C14.2374 5.17678 13.7625 5.17678 13.4696 5.46967C13.1767 5.76256 13.1767 6.23744 13.4696 6.53033L18.1893 11.25H4C3.58579 11.25 3.25 11.5858 3.25 12C3.25 12.4142 3.58579 12.75 4 12.75H18.1893L13.4696 17.4697C13.1767 17.7626 13.1767 18.2374 13.4696 18.5303C13.7625 18.8232 14.2374 18.8232 14.5303 18.5303L20.5246 12.536C20.5493 12.5118 20.5724 12.4859 20.5936 12.4585C20.5981 12.4527 20.6025 12.4469 20.6068 12.4409C20.6246 12.4164 20.6408 12.3911 20.6553 12.365C20.6583 12.3596 20.6613 12.3542 20.6641 12.3488C20.719 12.2446 20.75 12.1259 20.75 12C20.75 11.8741 20.719 11.7554 20.6641 11.6512C20.6602 11.6438 20.6562 11.6364 20.652 11.6291C20.6378 11.6042 20.6222 11.58 20.6049 11.5565C20.5995 11.5491 20.5939 11.5418 20.5881 11.5346C20.5685 11.5097 20.5472 11.4862 20.5246 11.464L14.5303 5.46967Z" fill="black"/>
</svg>
