<svg width="33" height="32" viewBox="0 0 33 32" fill="none" xmlns="http://www.w3.org/2000/svg">
<path fill-rule="evenodd" clip-rule="evenodd" d="M22 4.33331C19.2386 4.33331 17 6.57189 17 9.33331C17 9.8856 17.4477 10.3333 18 10.3333C18.5523 10.3333 19 9.8856 19 9.33331C19 7.67646 20.3431 6.33331 22 6.33331C23.6569 6.33331 25 7.67646 25 9.33331V12.3333H15C14.4477 12.3333 14 12.781 14 13.3333V15.3333C14 15.8856 14.4477 16.3333 15 16.3333C15.5523 16.3333 16 15.8856 16 15.3333V14.3333H27.6667V25.6666H16V22C16 21.4477 15.5523 21 15 21C14.4477 21 14 21.4477 14 22V26.6666C14 27.2189 14.4477 27.6666 15 27.6666H28.6667C29.219 27.6666 29.6667 27.2189 29.6667 26.6666V13.3333C29.6667 12.781 29.219 12.3333 28.6667 12.3333H27V9.33331C27 6.57189 24.7614 4.33331 22 4.33331ZM5 18.6666C5 17.378 6.04467 16.3333 7.33333 16.3333C8.622 16.3333 9.66667 17.378 9.66667 18.6666C9.66667 19.9553 8.622 21 7.33333 21C6.04467 21 5 19.9553 5 18.6666ZM7.33333 14.3333C4.9401 14.3333 3 16.2734 3 18.6666C3 21.0599 4.9401 23 7.33333 23C9.38239 23 11.0993 21.5778 11.5507 19.6666H20.6667V21.3333C20.6667 21.8856 21.1144 22.3333 21.6667 22.3333C22.219 22.3333 22.6667 21.8856 22.6667 21.3333V18.6666C22.6667 18.1144 22.219 17.6666 21.6667 17.6666H11.5507C11.0993 15.7555 9.38239 14.3333 7.33333 14.3333Z" fill="black"/>
</svg>
