<svg width="24" height="24" viewBox="0 0 24 24" fill="none" xmlns="http://www.w3.org/2000/svg">
<path fill-rule="evenodd" clip-rule="evenodd" d="M12.75 2.75C12.75 2.33579 12.4142 2 12 2C11.5858 2 11.25 2.33579 11.25 2.75V4.25H10C7.65279 4.25 5.75 6.15279 5.75 8.5C5.75 10.8472 7.65279 12.75 10 12.75H11.25V18.25H9.5C8.25736 18.25 7.25 17.2426 7.25 16C7.25 15.5858 6.91421 15.25 6.5 15.25C6.08579 15.25 5.75 15.5858 5.75 16C5.75 18.0711 7.42893 19.75 9.5 19.75H11.25V21.25C11.25 21.6642 11.5858 22 12 22C12.4142 22 12.75 21.6642 12.75 21.25V19.75H14.5C16.8472 19.75 18.75 17.8472 18.75 15.5C18.75 13.1528 16.8472 11.25 14.5 11.25H12.75V5.75H14.5C15.7426 5.75 16.75 6.75736 16.75 8C16.75 8.41421 17.0858 8.75 17.5 8.75C17.9142 8.75 18.25 8.41421 18.25 8C18.25 5.92893 16.5711 4.25 14.5 4.25H12.75V2.75ZM11.25 5.75H10C8.48122 5.75 7.25 6.98122 7.25 8.5C7.25 10.0188 8.48122 11.25 10 11.25H11.25V5.75ZM12.75 12.75V18.25H14.5C16.0188 18.25 17.25 17.0188 17.25 15.5C17.25 13.9812 16.0188 12.75 14.5 12.75H12.75Z" fill="black"/>
</svg>
