<svg width="24" height="24" viewBox="0 0 24 24" fill="none" xmlns="http://www.w3.org/2000/svg">
<path fill-rule="evenodd" clip-rule="evenodd" d="M7.5 2.25C5.42893 2.25 3.75 3.92893 3.75 6V18C3.75 18.087 3.75297 18.1734 3.7588 18.259C3.75297 18.3386 3.75 18.4189 3.75 18.5C3.75 20.2949 5.20508 21.75 7 21.75H7.5H19.5C19.9142 21.75 20.25 21.4142 20.25 21V16V3C20.25 2.58579 19.9142 2.25 19.5 2.25H7.5ZM18.75 15.25V3.75H7.5C6.25736 3.75 5.25 4.75736 5.25 6V15.7609C5.75515 15.4375 6.35568 15.25 7 15.25H18.75ZM7.5 20.25C6.34729 20.25 5.39704 19.3832 5.26554 18.2658C5.37999 17.41 6.11291 16.75 7 16.75H18.75V20.25H7.5Z" fill="black"/>
</svg>
