<svg width="33" height="32" viewBox="0 0 33 32" fill="none" xmlns="http://www.w3.org/2000/svg">
<path fill-rule="evenodd" clip-rule="evenodd" d="M5 3.66669C4.44772 3.66669 4 4.1144 4 4.66669V22.6667C4 25.7963 6.53705 28.3334 9.66667 28.3334L9.68225 28.3333H27.6666C27.9318 28.3333 28.1862 28.228 28.3737 28.0404C28.5612 27.8529 28.6666 27.5986 28.6666 27.3333V18.0178C28.6683 17.9277 28.6578 17.8368 28.6344 17.7475C28.6111 17.658 28.5758 17.5734 28.5302 17.4955L23.8724 9.17807C23.7418 8.94473 23.5231 8.77345 23.2652 8.7025C23.0074 8.63155 22.7318 8.66684 22.5002 8.80048L15.3333 12.9352V4.66669C15.3333 4.1144 14.8856 3.66669 14.3333 3.66669H5ZM15.3333 15.2442V22.6667C15.3333 23.0644 15.2924 23.4525 15.2144 23.8271L26.3055 17.6161L22.6223 11.039L15.3333 15.2442ZM14.8323 26.3333H26.6666V19.7061L14.8323 26.3333ZM9.6792 26.3333C11.6985 26.3266 13.3333 24.6875 13.3333 22.6667V5.66669H6V22.6667C6 24.6898 7.63845 26.3302 9.6608 26.3334L9.66659 26.3333H9.6792ZM9.65975 24C10.4882 24 11.1597 23.3284 11.1597 22.5C11.1597 21.6716 10.4882 21 9.65975 21C8.83132 21 8.15975 21.6716 8.15975 22.5C8.15975 23.3284 8.83132 24 9.65975 24Z" fill="black"/>
</svg>
