<svg width="33" height="32" viewBox="0 0 33 32" fill="none" xmlns="http://www.w3.org/2000/svg">
<path fill-rule="evenodd" clip-rule="evenodd" d="M15.5391 6.00979C18.0029 3.54598 21.6719 3.02652 24.6441 4.44575C24.937 4.58564 25.1438 4.85904 25.1987 5.17901C25.2537 5.49898 25.1498 5.8257 24.9203 6.05526L21.1952 9.78028L23.0809 11.6659L26.8064 7.94034C27.0359 7.71082 27.3626 7.60698 27.6825 7.66183C28.0024 7.71668 28.2758 7.92339 28.4158 8.21625C29.8364 11.1888 29.3173 14.859 26.8528 17.3235C24.7577 19.4187 21.7907 20.1075 19.1233 19.3947L11.1619 27.3561C9.59983 28.9182 7.06717 28.9182 5.50507 27.3561C3.94297 25.794 3.94297 23.2613 5.50507 21.6992L13.4673 13.7369C12.7555 11.0701 13.4446 8.10433 15.5391 6.00979ZM22.3661 5.78097C20.4676 5.40542 18.4233 5.95405 16.9533 7.42401C15.2622 9.11514 14.7902 11.566 15.543 13.6825C15.6724 14.0462 15.5809 14.4518 15.308 14.7247L6.91928 23.1134C6.13823 23.8945 6.13823 25.1608 6.91928 25.9418C7.70033 26.7229 8.96666 26.7229 9.74771 25.9418L18.1357 17.5539C18.4087 17.2809 18.8145 17.1894 19.1782 17.3189C21.2952 18.0727 23.747 17.6009 25.4386 15.9093C26.9092 14.4387 27.4577 12.3933 27.0812 10.494L23.788 13.7872C23.3974 14.1777 22.7643 14.1777 22.3738 13.7872L19.0739 10.4874C18.6834 10.0969 18.6834 9.46369 19.0739 9.07317L22.3661 5.78097Z" fill="black"/>
</svg>
