<svg width="24" height="24" viewBox="0 0 24 24" fill="none" xmlns="http://www.w3.org/2000/svg">
<path fill-rule="evenodd" clip-rule="evenodd" d="M21.7227 2.27729C22.0156 2.57018 22.0156 3.04505 21.7227 3.33795L20.0941 4.96653C21.6358 7.0229 21.4716 9.95303 19.6014 11.8232L18.364 13.0607L18.7175 13.4142C19.0104 13.7071 19.0104 14.182 18.7175 14.4749C18.4246 14.7678 17.9498 14.7678 17.6569 14.4749L9.52513 6.34315C9.23224 6.05026 9.23224 5.57538 9.52513 5.28249C9.81803 4.9896 10.2929 4.9896 10.5858 5.28249L10.9393 5.63604L12.1768 4.39861C14.047 2.52841 16.9771 2.36417 19.0335 3.90587L20.6621 2.27729C20.955 1.98439 21.4298 1.98439 21.7227 2.27729ZM12 6.6967L17.3033 12L18.5407 10.7626C20.0052 9.2981 20.0052 6.92373 18.5407 5.45927C17.0763 3.9948 14.7019 3.9948 13.2374 5.45927L12 6.6967ZM8.28769 11.4697L10.5858 9.17158L11.6465 10.2322L9.34835 12.5303L11.4697 14.6517L13.7678 12.3536L14.8284 13.4142L12.5303 15.7123L14.4749 17.6569C14.7678 17.9498 14.7678 18.4246 14.4749 18.7175C14.182 19.0104 13.7071 19.0104 13.4142 18.7175L13.0607 18.364L11.8232 19.6014C9.95303 21.4716 7.0229 21.6358 4.96653 20.0941L3.33795 21.7227C3.04505 22.0156 2.57018 22.0156 2.27729 21.7227C1.98439 21.4298 1.98439 20.955 2.27729 20.6621L3.90587 19.0335C2.36417 16.9771 2.52841 14.047 4.39861 12.1768L5.63604 10.9393L5.28249 10.5858C4.9896 10.2929 4.9896 9.81803 5.28249 9.52513C5.57538 9.23224 6.05026 9.23224 6.34315 9.52513L8.28769 11.4697ZM6.6967 12L5.45927 13.2374C3.9948 14.7019 3.9948 17.0763 5.45927 18.5407C6.92373 20.0052 9.2981 20.0052 10.7626 18.5407L12 17.3033L6.6967 12Z" fill="black"/>
</svg>
