<svg width="24" height="24" viewBox="0 0 24 24" fill="none" xmlns="http://www.w3.org/2000/svg">
<path d="M21.907 11.893c-.372-1.038-1.227-1.766-2.165-2.284.35-.486.577-1.055.577-1.69 0-1.607-1.302-2.909-2.909-2.909-1.038 0-1.948.545-2.463 1.366-1.235-.6-2.629-.93-4.108-.93-5.245 0-9.5 3.604-9.5 8.05 0 2.227 1.014 4.29 2.85 5.796 1.711 1.403 3.998 2.255 6.454 2.4l.196.008c2.083 0 4.089-.583 5.8-1.682a.726.726 0 0 0 .238-.989.726.726 0 0 0-.989-.238c-1.49.955-3.229 1.46-5.049 1.46l-.171-.006c-2.158-.127-4.168-.87-5.657-2.09-1.556-1.276-2.413-2.93-2.413-4.659 0-3.72 3.614-6.6 8.05-6.6 1.317 0 2.558.274 3.658.772a2.886 2.886 0 0 0-.134.866c0 1.282.83 2.37 1.98 2.757-.106.285-.162.591-.162.91 0 .854.413 1.61 1.048 2.083-.41.368-.683.894-.683 1.485 0 1.093.886 1.98 1.98 1.98.494 0 .943-.183 1.29-.484a6.06 6.06 0 0 1-.26 1.007.727.727 0 0 0 1.379.46c.78-2.344.58-4.15-.267-5.44zm-4.497-5.433c.803 0 1.455.652 1.455 1.455 0 .803-.652 1.455-1.455 1.455-.803 0-1.455-.652-1.455-1.455 0-.803.652-1.455 1.455-1.455zm.99 9.308c-.292 0-.53-.237-.53-.53 0-.292.238-.53.53-.53.293 0 .53.238.53.53 0 .293-.237.53-.53.53z" fill="currentColor"/>
</svg>
