<svg fill="none" viewBox="0 0 32 32" xmlns="http://www.w3.org/2000/svg">
    
        <path fill="#5865F2"
            d="M27.108 6.031A26.467 26.467 0 0 0 20.506 4a18.13 18.13 0 0 0-.846 1.72 24.585 24.585 0 0 0-7.327 0A18.192 18.192 0 0 0 11.488 4 26.652 26.652 0 0 0 4.88 6.036C.703 12.218-.43 18.246.136 24.188a26.612 26.612 0 0 0 8.097 4.065 19.552 19.552 0 0 0 1.735-2.796 17.227 17.227 0 0 1-2.731-1.304c.229-.166.453-.337.67-.503a19.021 19.021 0 0 0 16.188 0c.219.178.443.35.67.503-.873.515-1.788.952-2.736 1.306a19.378 19.378 0 0 0 1.734 2.794 26.49 26.49 0 0 0 8.102-4.062c.664-6.892-1.135-12.864-4.757-18.16ZM10.685 20.534c-1.578 0-2.882-1.433-2.882-3.194 0-1.762 1.258-3.207 2.877-3.207 1.618 0 2.912 1.445 2.884 3.207-.027 1.761-1.27 3.194-2.88 3.194Zm10.631 0c-1.58 0-2.88-1.433-2.88-3.194 0-1.762 1.26-3.207 2.88-3.207 1.621 0 2.905 1.445 2.877 3.207-.028 1.761-1.268 3.194-2.877 3.194Z" />
    </g>
  
</svg>