<svg width="33" height="32" viewBox="0 0 33 32" fill="none" xmlns="http://www.w3.org/2000/svg">
<g clip-path="url(#clip0_30_1329)">
<path d="M3.56072 21.3991C3.28208 21.3991 3.04524 21.3063 2.85019 21.1206C2.65514 20.9301 2.55762 20.704 2.55762 20.4421C2.55762 20.1754 2.65514 19.9469 2.85019 19.7565C3.04524 19.566 3.28208 19.4708 3.56072 19.4708C3.844 19.4708 4.08317 19.566 4.27822 19.7565C4.47791 19.9469 4.57776 20.1754 4.57776 20.4421C4.57776 20.704 4.47791 20.9301 4.27822 21.1206C4.08317 21.3063 3.844 21.3991 3.56072 21.3991Z" fill="black"/>
<path d="M14.6997 21.242H12.8885L8.11684 13.7141C7.99612 13.5236 7.89621 13.326 7.81731 13.1213H7.77549C7.81265 13.3403 7.83123 13.8093 7.83123 14.5283V21.242H6.229V11H8.15858L12.7701 18.3494C12.9652 18.6542 13.0906 18.8637 13.1463 18.9779H13.1741C13.1277 18.7066 13.1045 18.2471 13.1045 17.5994V11H14.6997V21.242Z" fill="black"/>
<path d="M22.5016 21.242H16.894V11H22.2788V12.4428H18.552V15.3425H21.9862V16.7781H18.552V19.8064H22.5016V21.242Z" fill="black"/>
<path d="M30.4713 12.4428H27.6013V21.242H25.9433V12.4428H23.0803V11H30.4713V12.4428Z" fill="black"/>
</g>
<defs>
<clipPath id="clip0_30_1329">
<rect width="28" height="10.4568" fill="white" transform="translate(2.5 11)"/>
</clipPath>
</defs>
</svg>
