<svg width="32" height="32" viewBox="0 0 32 32" fill="none" xmlns="http://www.w3.org/2000/svg">
    <rect width="32" height="32" fill="none" />
    <path
        d="M15.5 28C19.6421 28 23 24.6421 23 20.5C23 13.75 16.25 13 16.25 4C12.125 8.125 8 12.8125 8 20.5C8 24.6421 11.3579 28 15.5 28Z"
        stroke="black" stroke-width="1.5" stroke-linejoin="round" />
    <path d="M8.01733 21.5C9.91668 23.0621 12.3488 24 15 24C18.152 24 20.9944 22.6742 23 20.5499"
        stroke="black" stroke-width="1.5" />
    <path d="M18 27.6521C15.1333 26.2978 13 21.1472 13 15C13 10.8374 13.9782 7.13167 15.5 4.75232"
        stroke="black" stroke-width="1.5" />
    <path
        d="M16.3764 6.15765C14.914 7.61751 14 9.69489 14 12C14 16.4182 17.3579 20 21.5 20C22.0137 20 22.5153 19.9449 23 19.8399"
        stroke="black" stroke-width="1.5" />
</svg>