<svg width="32" height="32" viewBox="0 0 32 32" fill="none" xmlns="http://www.w3.org/2000/svg">
    <path
        d="M15.3464 13.0474C15.5519 12.7479 15.7757 12.7101 15.9573 12.7101C16.1389 12.7101 16.4406 12.7479 16.646 13.0474C18.257 15.2422 20.9166 19.6156 22.879 22.8429C24.1591 24.9458 25.1419 26.5621 25.344 26.7675C26.1009 27.5395 27.1388 27.0584 27.7421 26.1826C28.3357 25.3209 28.5 24.7155 28.5 24.07C28.5 23.63 19.896 7.75833 19.03 6.43713C18.1975 5.16675 17.925 4.84564 16.5 4.84564H15.4318C14.0101 4.84564 13.8047 5.16675 12.9711 6.43713C12.1051 7.75833 3.5 23.63 3.5 24.0689C3.5 24.7155 3.66542 25.3209 4.26007 26.1826C4.86336 27.0584 5.90129 27.5395 6.65811 26.7665C6.85921 26.561 7.842 24.9458 9.12211 22.8418C11.0844 19.6156 13.7355 15.2422 15.3475 13.0464L15.3464 13.0474Z"
        fill="black" />
</svg>
