<svg width="32" height="32" viewBox="0 0 32 32" fill="none" xmlns="http://www.w3.org/2000/svg">
<path d="M5.95789 22.0391L6.87793 22.5703L17.1275 4.81794L16.2075 4.28674L5.95789 22.0391Z" fill="black"/>
<path d="M26.2465 20.6208H5.74731V21.6832H26.2465V20.6208Z" fill="black"/>
<path d="M6.15282 21.2176L16.4062 27.1376L16.9374 26.2176L6.68402 20.2976L6.15282 21.2176Z" fill="black"/>
<path d="M15.06 5.78862L25.3135 11.7086L25.8447 10.7886L15.5912 4.86858L15.06 5.78862Z" fill="black"/>
<path d="M6.15581 10.7845L6.68701 11.7045L16.9404 5.78453L16.4092 4.86449L6.15581 10.7845Z" fill="black"/>
<path d="M14.8747 4.81813L25.1243 22.5704L26.0443 22.0392L15.7947 4.28693L14.8747 4.81813Z" fill="black"/>
<path d="M7.62246 10.08H6.56006V21.92H7.62246V10.08Z" fill="black"/>
<path d="M25.4401 10.08H24.3777V21.92H25.4401V10.08Z" fill="black"/>
<path d="M15.7616 25.8843L16.2256 26.688L25.1433 21.5392L24.6793 20.7355L15.7616 25.8843Z" fill="black"/>
<path d="M26.848 22.2656C26.2336 23.3344 24.864 23.6992 23.7952 23.0848C22.7264 22.4704 22.3616 21.1008 22.976 20.032C23.5904 18.9632 24.96 18.5984 26.0288 19.2128C27.104 19.8336 27.4688 21.1968 26.848 22.2656Z" fill="black"/>
<path d="M9.01765 11.968C8.40325 13.0368 7.03366 13.4016 5.96486 12.7872C4.89606 12.1728 4.53126 10.8032 5.14566 9.73439C5.76006 8.66559 7.12965 8.30079 8.19845 8.91519C9.26725 9.53599 9.63205 10.8992 9.01765 11.968Z" fill="black"/>
<path d="M5.152 22.2656C4.5376 21.1968 4.9024 19.8336 5.9712 19.2128C7.04 18.5984 8.4032 18.9632 9.024 20.032C9.6384 21.1008 9.2736 22.464 8.2048 23.0848C7.1296 23.6992 5.7664 23.3344 5.152 22.2656Z" fill="black"/>
<path d="M22.9826 11.968C22.3682 10.8992 22.733 9.53599 23.8018 8.91519C24.8706 8.30079 26.2338 8.66559 26.8546 9.73439C27.469 10.8032 27.1042 12.1664 26.0354 12.7872C24.9666 13.4016 23.597 13.0368 22.9826 11.968Z" fill="black"/>
<path d="M16 28.5312C14.7648 28.5312 13.7664 27.5328 13.7664 26.2976C13.7664 25.0624 14.7648 24.064 16 24.064C17.2352 24.064 18.2336 25.0624 18.2336 26.2976C18.2336 27.5264 17.2352 28.5312 16 28.5312Z" fill="black"/>
<path d="M16 7.93601C14.7648 7.93601 13.7664 6.93761 13.7664 5.70241C13.7664 4.46721 14.7648 3.46881 16 3.46881C17.2352 3.46881 18.2336 4.46721 18.2336 5.70241C18.2336 6.93761 17.2352 7.93601 16 7.93601Z" fill="black"/>
</svg>
