<svg width="33" height="32" viewBox="0 0 33 32" fill="none" xmlns="http://www.w3.org/2000/svg">
<path fill-rule="evenodd" clip-rule="evenodd" d="M16.6667 5C10.5916 5 5.66675 9.92487 5.66675 16C5.66675 22.0751 10.5916 27 16.6667 27C22.7419 27 27.6667 22.0751 27.6667 16C27.6667 9.92487 22.7419 5 16.6667 5ZM3.66675 16C3.66675 8.8203 9.48705 3 16.6667 3C23.8465 3 29.6667 8.8203 29.6667 16C29.6667 23.1797 23.8465 29 16.6667 29C9.48705 29 3.66675 23.1797 3.66675 16ZM16.6857 10.3333C15.6713 10.3333 14.8057 10.9812 14.4849 11.8888C14.3008 12.4095 13.7295 12.6824 13.2088 12.4984C12.6881 12.3143 12.4151 11.743 12.5992 11.2223C13.1936 9.5406 14.7974 8.33333 16.6857 8.33333C19.0789 8.33333 21.019 10.2734 21.019 12.6667C21.019 14.5784 19.545 15.5443 18.4991 16.1373C17.9884 16.4269 17.6857 16.9434 17.6857 17.5098V18C17.6857 18.5523 17.238 19 16.6857 19C16.1334 19 15.6857 18.5523 15.6857 18V17.5098C15.6857 16.2029 16.3936 15.0321 17.5126 14.3976C18.5725 13.7966 19.019 13.3424 19.019 12.6667C19.019 11.378 17.9743 10.3333 16.6857 10.3333ZM16.6667 23.6667C17.4952 23.6667 18.1667 22.9951 18.1667 22.1667C18.1667 21.3382 17.4952 20.6667 16.6667 20.6667C15.8383 20.6667 15.1667 21.3382 15.1667 22.1667C15.1667 22.9951 15.8383 23.6667 16.6667 23.6667Z" fill="black"/>
</svg>
