<svg width="24" height="24" viewBox="0 0 24 24" fill="none" xmlns="http://www.w3.org/2000/svg">
<path fill-rule="evenodd" clip-rule="evenodd" d="M12 3.75C7.44365 3.75 3.75 7.44365 3.75 12C3.75 16.5563 7.44365 20.25 12 20.25C16.5563 20.25 20.25 16.5563 20.25 12C20.25 7.44365 16.5563 3.75 12 3.75ZM2.25 12C2.25 6.61522 6.61522 2.25 12 2.25C17.3848 2.25 21.75 6.61522 21.75 12C21.75 17.3848 17.3848 21.75 12 21.75C6.61522 21.75 2.25 17.3848 2.25 12ZM13.125 8C13.125 8.62132 12.6213 9.125 12 9.125C11.3787 9.125 10.875 8.62132 10.875 8C10.875 7.37868 11.3787 6.875 12 6.875C12.6213 6.875 13.125 7.37868 13.125 8ZM13 17C13.4142 17 13.75 16.6642 13.75 16.25C13.75 15.8358 13.4142 15.5 13 15.5H12.75V11.25C12.75 11.0511 12.671 10.8603 12.5303 10.7197C12.3897 10.579 12.1989 10.5 12 10.5H11C10.5858 10.5 10.25 10.8358 10.25 11.25C10.25 11.6642 10.5858 12 11 12H11.25L11.25 16.25C11.25 16.6642 11.5858 17 12 17H13Z" fill="black"/>
</svg>
