<svg width="33" height="32" viewBox="0 0 33 32" fill="none" xmlns="http://www.w3.org/2000/svg">
<path d="M2.63017 22.6695H4.94562V12.8126H2.63017V22.6695ZM3.78325 11.52C4.50858 11.52 5.07581 10.9621 5.07581 10.2647C5.07581 9.55793 4.50858 9 3.78325 9C3.06723 9 2.5 9.55795 2.5 10.2647C2.5 10.9621 3.06723 11.52 3.78325 11.52ZM12.6548 9.02783C8.74 9.02783 6.28496 11.6966 6.28496 15.965C6.28496 20.2333 8.73976 22.8928 12.6548 22.8928C16.5603 22.8928 19.0153 20.2333 19.0153 15.965C19.0153 11.6966 16.5605 9.02783 12.6548 9.02783ZM12.6548 11.0736C15.0446 11.0736 16.5696 12.9706 16.5696 15.9649C16.5696 18.9499 15.0446 20.8469 12.6548 20.8469C10.2557 20.8469 8.74 18.9499 8.74 15.9649C8.74 12.9707 10.2557 11.0736 12.6548 11.0736ZM19.9921 18.8942C20.0944 21.3678 22.1215 22.8927 25.2088 22.8927C28.4542 22.8927 30.5 21.2933 30.5 18.7454C30.5 16.7461 29.3469 15.6209 26.6223 14.9979L25.0787 14.6446C23.4328 14.254 22.754 13.7333 22.754 12.8406C22.754 11.7247 23.7769 10.9808 25.2926 10.9808C26.8269 10.9808 27.8776 11.734 27.9893 12.9894H30.2768C30.221 10.6274 28.2682 9.0279 25.3112 9.0279C22.3913 9.0279 20.3176 10.6366 20.3176 13.0172C20.3176 14.9328 21.4893 16.1231 23.9627 16.6904L25.7016 17.0995C27.394 17.4994 28.0821 18.0573 28.0821 19.0244C28.0821 20.1403 26.9569 20.94 25.339 20.94C23.7024 20.94 22.4657 20.131 22.3169 18.8942H19.9922L19.9921 18.8942Z" fill="black"/>
</svg>
