<svg width="32" height="32" viewBox="0 0 32 32" fill="none" xmlns="http://www.w3.org/2000/svg">
        <path
            d="M23.5879 25.0732H23.4693V25.0068H23.7885V25.0732H23.6707V25.4041H23.5879V25.0732ZM24.2245 25.0904H24.2226L24.1052 25.4042H24.0514L23.9347 25.0904H23.9332V25.4042H23.8552V25.0069H23.9701L24.0783 25.2882L24.1862 25.0069H24.3007V25.4042H24.2244L24.2245 25.0904Z"
            fill="#000000" />
        <path
            d="M12.9742 16.9498C12.9742 16.9498 12.1493 17.4295 13.5612 17.5918C15.2718 17.7869 16.146 17.759 18.0311 17.4022C18.0311 17.4022 18.5266 17.7129 19.2188 17.9821C14.993 19.7932 9.65508 17.8772 12.9742 16.9498Z"
            fill="#000000" />
        <path
            d="M12.4578 14.5864C12.4578 14.5864 11.5326 15.2713 12.9456 15.4174C14.7729 15.6059 16.2159 15.6214 18.7129 15.1405C18.7129 15.1405 19.0583 15.4907 19.6013 15.6822C14.4921 17.1762 8.80144 15.8 12.4578 14.5864Z"
            fill="#000000" />
        <path
            d="M16.8109 10.5774C17.8521 11.7762 16.5373 12.8549 16.5373 12.8549C16.5373 12.8549 19.1812 11.4901 17.967 9.78101C16.833 8.18718 15.9633 7.39527 20.6712 4.66486C20.6712 4.66486 13.2814 6.5105 16.8109 10.5774Z"
            fill="#000000" />
        <path
            d="M22.3998 18.6978C22.3998 18.6978 23.0103 19.2008 21.7275 19.5899C19.2884 20.3288 11.5755 20.552 9.43289 19.6194C8.66267 19.2843 10.107 18.8193 10.5614 18.7217C11.0352 18.619 11.306 18.6381 11.306 18.6381C10.4494 18.0347 5.76958 19.823 8.92886 20.3351C17.5447 21.7323 24.6346 19.7059 22.3998 18.6978Z"
            fill="#000000" />
        <path
            d="M13.3708 12.1377C13.3708 12.1377 9.44757 13.0696 11.9815 13.408C13.0514 13.5512 15.1842 13.5188 17.1709 13.3523C18.7945 13.2154 20.4248 12.9242 20.4248 12.9242C20.4248 12.9242 19.8523 13.1694 19.4381 13.4522C15.4541 14.5 7.75779 14.0125 9.97347 12.9408C11.8473 12.035 13.3708 12.1377 13.3708 12.1377Z"
            fill="#000000" />
        <path
            d="M20.4087 16.0717C24.4586 13.9672 22.5861 11.9448 21.2791 12.2172C20.9588 12.2839 20.8159 12.3417 20.8159 12.3417C20.8159 12.3417 20.9349 12.1554 21.162 12.0747C23.7477 11.1657 25.7362 14.7558 20.3273 16.1777C20.3273 16.1777 20.39 16.1217 20.4087 16.0717Z"
            fill="#000000" />
        <path
            d="M17.967 0.25592C17.967 0.25592 20.2099 2.49959 15.8397 5.94971C12.3352 8.7173 15.0405 10.2953 15.8382 12.0982C13.7926 10.2526 12.2914 8.62788 13.2985 7.11573C14.7767 4.89604 18.8719 3.81985 17.967 0.25592Z"
            fill="#000000" />
        <path
            d="M13.7688 21.7743C17.6562 22.0231 23.6258 21.6362 23.7672 19.7968C23.7672 19.7968 23.4954 20.4941 20.5544 21.0479C17.2364 21.6723 13.1442 21.5994 10.717 21.1992C10.717 21.1992 11.2139 21.6105 13.7688 21.7743Z"
            fill="#000000" />
        <path
            d="M13.1317 28.8028C12.765 29.1209 12.3777 29.2994 12.0301 29.2994C11.534 29.2994 11.266 29.0019 11.266 28.5248C11.266 28.0086 11.5531 27.6313 12.7053 27.6313H13.1317L13.1317 28.8028ZM14.1436 29.9445V26.4104C14.1436 25.5076 13.6287 24.9119 12.3872 24.9119C11.6625 24.9119 11.0276 25.0908 10.5116 25.3191L10.6605 25.9447C11.0668 25.7955 11.5927 25.6567 12.1089 25.6567C12.8241 25.6567 13.1317 25.9447 13.1317 26.54V26.9866H12.7748C11.0372 26.9866 10.2534 27.6611 10.2534 28.6736C10.2534 29.5473 10.7699 30.0439 11.7425 30.0439C12.3676 30.0439 12.8343 29.7858 13.2705 29.4081L13.3497 29.9445L14.1436 29.9445Z"
            fill="#000000" />
        <path
            d="M17.5207 29.9445H16.2586L14.7397 25.0013H15.8419L16.7844 28.0384L16.9939 28.9518C17.4707 27.6312 17.8079 26.2914 17.9766 25.0013H19.0487C18.7614 26.6291 18.2446 28.4157 17.5207 29.9445Z"
            fill="#000000" />
        <path
            d="M22.3622 28.8028C21.9948 29.1209 21.6068 29.2994 21.2592 29.2994C20.764 29.2994 20.4952 29.0019 20.4952 28.5248C20.4952 28.0086 20.7831 27.6313 21.9352 27.6313H22.3622V28.8028ZM23.374 29.9445V26.4104C23.374 25.5076 22.8578 24.9119 21.6178 24.9119C20.8925 24.9119 20.2574 25.0908 19.7416 25.3191L19.8903 25.9447C20.2968 25.7955 20.8237 25.6567 21.3394 25.6567C22.0541 25.6567 22.3622 25.9447 22.3622 26.54V26.9866H22.0047C20.2666 26.9866 19.4831 27.6611 19.4831 28.6736C19.4831 29.5473 19.9992 30.0439 20.9716 30.0439C21.5971 30.0439 22.0636 29.7858 22.5006 29.4081L22.5801 29.9445L23.374 29.9445Z"
            fill="#000000" />
        <path
            d="M9.14383 30.7839C8.85537 31.2051 8.38945 31.5383 7.87937 31.7268L7.37976 31.1389C7.76801 30.9397 8.10098 30.618 8.25569 30.3183C8.38951 30.0517 8.4449 29.7082 8.4449 28.8868V23.2434H9.51998V28.8094C9.51992 29.9077 9.43212 30.3513 9.14383 30.7839Z"
            fill="#000000" />
</svg>
