<svg width="33" height="32" viewBox="0 0 33 32" fill="none" xmlns="http://www.w3.org/2000/svg">
<path fill-rule="evenodd" clip-rule="evenodd" d="M4.00024 5C3.44796 5 3.00024 5.44772 3.00024 6C3.00024 6.55228 3.44796 7 4.00024 7H23.6669C25.8761 7 27.6669 8.79086 27.6669 11C27.6669 13.2091 25.8761 15 23.6669 15H8.66691C5.5373 15 3.00024 17.5371 3.00024 20.6667C3.00024 23.7963 5.5373 26.3333 8.66691 26.3333H21.7928C22.2369 28.0586 23.803 29.3333 25.6668 29.3333C27.876 29.3333 29.6668 27.5425 29.6668 25.3333C29.6668 23.1242 27.876 21.3333 25.6668 21.3333C23.803 21.3333 22.2369 22.6081 21.7928 24.3333H8.66691C6.64187 24.3333 5.00024 22.6917 5.00024 20.6667C5.00024 18.6416 6.64187 17 8.66691 17H23.6669C26.9806 17 29.6669 14.3137 29.6669 11C29.6669 7.68629 26.9806 5 23.6669 5H4.00024ZM23.6669 25.3439C23.6669 25.3404 23.6669 25.3369 23.6669 25.3333C23.6669 25.3298 23.6669 25.3263 23.6669 25.3228C23.6725 24.2231 24.5658 23.3333 25.6668 23.3333C26.7714 23.3333 27.6668 24.2288 27.6668 25.3333C27.6668 26.4379 26.7714 27.3333 25.6668 27.3333C24.5658 27.3333 23.6725 26.4436 23.6669 25.3439Z" fill="black"/>
</svg>
