<svg width="33" height="32" viewBox="0 0 33 32" fill="none" xmlns="http://www.w3.org/2000/svg">
<path d="M8.5001 19.7962L10.4736 18.6084C10.8543 19.2797 11.2007 19.8478 12.0315 19.8478C12.8278 19.8478 13.33 19.538 13.33 18.333V10.1379H15.7534V18.367C15.7534 20.8634 14.282 21.9997 12.1353 21.9997C10.1966 21.9997 9.07128 21.0011 8.5 19.796L8.5001 19.7962ZM17.0698 19.5379L19.043 18.4017C19.5625 19.2454 20.2377 19.8651 21.432 19.8651C22.4363 19.8651 23.0766 19.3658 23.0766 18.6771C23.0766 17.8508 22.4187 17.558 21.3108 17.0761L20.7051 16.8176C18.9566 16.0775 17.7968 15.1478 17.7968 13.1851C17.7968 11.3774 19.1816 10 21.3456 10C22.8863 10 23.9942 10.5338 24.7904 11.9283L22.9034 13.1335C22.4878 12.3933 22.0379 12.1006 21.3455 12.1006C20.6357 12.1006 20.1856 12.5483 20.1856 13.1335C20.1856 13.8566 20.6357 14.1494 21.6743 14.5971L22.2801 14.8553C24.3402 15.7334 25.5 16.6286 25.5 18.6427C25.5 20.8122 23.7862 22 21.4839 22C19.2335 22 17.7794 20.9326 17.0697 19.538" fill="black"/>
</svg>
