<svg id="Logo" xmlns="http://www.w3.org/2000/svg" viewBox="0 0 423.335 137.71">
  <polygon points="72.301 135.385 21.061 69.899 21.061 135.385 0 135.385 0 1.163 21.061 1.163 21.061 64.724 70.365 1.163 95.104 1.163 43.729 66.339 98.775 135.385 72.301 135.385"/>
  <path d="M104.445,135.385V38.755h19.898v96.63h-19.898ZM114.394,23.579c-6.665,0-11.886-5.136-11.886-11.692,0-6.666,5.221-11.887,11.886-11.887s11.693,5.11,11.693,11.887c0,6.557-5.136,11.692-11.693,11.692Z"/>
  <path d="M201.332,135.385v-55.291c0-14.67-9.751-25.317-23.186-25.317-13.766,0-23.38,10.411-23.38,25.317v55.291h-19.898V38.755h14.681l4.253,11.851h.693l.971-1.292c3.242-4.457,13.044-12.885,26.942-12.885,23.104,0,38.627,16.925,38.627,42.115v56.841h-19.704Z"/>
  <path d="M272.902,137.71c-24.919,0-44.44-22.244-44.44-50.641s19.521-50.641,44.44-50.641c14.787,0,25.17,9.125,27.105,12.256.726,1.067,1.154,1.987,1.154,1.987h1.127V1.163h19.898v134.222h-14.678l-4.221-12.045h-.765l-.931,1.289c-2.501,3.394-13.14,13.081-28.689,13.081ZM275.228,54.776c-15.427,0-27.061,13.883-27.061,32.293s11.634,32.294,27.061,32.294,27.062-13.884,27.062-32.294-11.634-32.293-27.062-32.293Z"/>
  <path d="M377.539,137.71c-26.875,0-47.928-22.244-47.928-50.641,0-27.924,21.414-50.641,47.734-50.641,25.789,0,45.991,21.308,45.991,48.51,0,3.575-.372,7.167-1.003,9.754h-72.965l.152.836c2.738,15.061,13.4,24.416,27.825,24.416,12.197,0,18.639-6.294,21.489-10.27h20.676c-5.871,14.09-21.923,28.035-41.971,28.035ZM377.345,54.194c-13.924,0-25.106,10.046-27.825,24.997l-.152.836h54.774l-.131-.821c-2.394-14.96-13.11-25.012-26.666-25.012Z"/>
</svg>