<svg version="1.1" id="Layer_1" xmlns="http://www.w3.org/2000/svg"
	xmlns:xlink="http://www.w3.org/1999/xlink" x="0px" y="0px"
	viewBox="0 0 804.4 267.6" style="enable-background:new 0 0 804.4 267.6;" xml:space="preserve">
<style type="text/css">
	.st0{fill-rule:evenodd;clip-rule:evenodd;fill:#FFFFFF;}
	.st1{fill-rule:evenodd;clip-rule:evenodd;}
</style>
<g id="Page-1_00000155830162769903702660000017260685324954657685_">
	<g id="logo_00000027584599185912995980000012110219020300214207_" transform="translate(0.000300, -0.000468)">
		<path id="Path_00000151501359349832012150000018364782185657888958_" class="st1" d="M195.9,259.4c-15.9,0-30.4,0.1-44.9-0.1
			c-1.6,0-3.6-1.8-4.8-3.2c-31.7-36.7-63.2-73.5-94.8-110.2c-1-1.2-2.1-2.3-4-4.5v117.7H8.5V6H47v116.1c2.1-2.3,3.3-3.5,4.3-4.8
			c28.8-35.8,57.6-71.6,86.2-107.4c2.4-3,4.8-4.3,8.8-4.3c13.4,0.3,26.8,0.1,41.7,0.1c-35.1,42.2-69.6,83.5-104.2,125
			C121,173.4,158,215.9,195.9,259.4"/>
		<path id="Shape_00000172433184238299477630000006910859751607980689_" class="st1" d="M579.7,171.7c-0.1-11.7-1.9-20.7-5.8-29.4
			c-15.6-34.9-60.7-42.3-85.5-14c-17.7,20.1-19.9,53.1-5,75.4c15.5,23.1,44,30.9,67.3,17.7C570.8,210,578.8,191.5,579.7,171.7
			 M575.6,95.5V6.3h36.4v253.3c-8.3,0-16.7,0.1-25.1-0.1c-0.9,0-2-1.8-2.6-3c-2.3-4.7-4.4-9.4-6.7-14.6
			c-10.9,10.5-23.6,16.1-37.9,18.6c-42.9,7.6-85.1-17.2-97.7-58.4c-10.5-34.3-6.8-66.9,16.6-95.5c24.2-29.5,68.4-38.8,100.9-21.8
			C565,87.7,570,91.7,575.6,95.5"/>
		<path id="Shape_00000012435936817582714010000004918523271527149207_" class="st1" d="M760.4,154.9c0.1-23-22.6-43.5-48.3-43.9
			c-25.6-0.4-47.8,19.6-48.3,43.9H760.4z M663.5,185.4c0.9,18.1,16.1,35.6,35.1,40.3c20.5,5,38.1,0.2,52.3-15.7
			c1-1.2,2.7-2.5,4.2-2.5c11.9-0.2,23.9-0.1,36.4-0.1c-4.6,12.1-11.1,22.5-19.9,31.3c-16.8,16.9-37.6,23.4-61.2,23
			c-44-0.8-79.7-33.2-85-76.6c-3.1-24.9,0.1-48.6,14.2-69.8c18.7-28.2,45.6-41.5,79.5-38c33.4,3.5,56.1,22.5,69,52.7
			c7.2,17,10,34.8,6,53.2c-0.1,0.6-0.4,1.2-0.7,2.3H663.5z"/>
		<path id="Fill-9_00000124866183531974420390000004195566783665362361_" class="st1" d="M422.8,259.5h-36.5V254
			c0-33.3,0.1-66.6-0.1-99.8c-0.1-18.4-13.2-35.8-30.4-41.3c-24.9-7.9-52.2,8.9-56.6,35c-0.6,3.6-0.8,7.2-0.8,10.8
			c-0.1,31.5,0,63.1,0,94.6v6h-36.2V78.8c8.2,0,16.5-0.1,24.7,0.1c1,0,2.3,1.8,2.9,3.1c2.3,4.6,4.3,9.4,6.6,14.4
			c18.1-16.9,39.6-21.7,62.8-19.1c30.2,3.3,55.4,27,61.4,57c1.4,6.9,2.2,14,2.2,21.1c0.2,33.4,0.1,66.9,0.1,100.3
			C423,256.7,422.9,257.8,422.8,259.5"/>
		<polygon id="Path_00000086686696443419455730000007019301175194384259_" class="st1" points="205.3,259.5 241.4,259.5 241.4,78.9 
			205.3,78.9 		"/>
		<path id="Path_00000155119982746029754260000007963858249291883965_" class="st1" d="M245.8,28.3c0,12.2-10.3,22.2-22.6,22.1
			c-11.9-0.1-22.2-10.2-22.4-22C200.7,16.6,211.3,6,223.3,6C235.6,6,245.8,16.2,245.8,28.3"/>
	</g>
</g>
</svg>