<svg width="24" height="24" viewBox="0 0 24 24" fill="none" xmlns="http://www.w3.org/2000/svg">
    <path fill-rule="evenodd" clip-rule="evenodd"
        d="M4 3.75C4 3.61193 4.11193 3.5 4.25 3.5H15.75C15.8881 3.5 16 3.61193 16 3.75V11.75C16 11.8881 15.8881 12 15.75 12H11.25C11.0511 12 10.8603 12.079 10.7197 12.2197L7.5 15.4393V12.75C7.5 12.3358 7.16421 12 6.75 12H4.25C4.11193 12 4 11.8881 4 11.75V3.75ZM4.25 2C3.2835 2 2.5 2.7835 2.5 3.75V11.75C2.5 12.7165 3.2835 13.5 4.25 13.5H6V17.25C6 17.5533 6.18273 17.8268 6.46299 17.9429C6.74324 18.059 7.06583 17.9948 7.28033 17.7803L11.5607 13.5H15.75C16.7165 13.5 17.5 12.7165 17.5 11.75V3.75C17.5 2.7835 16.7165 2 15.75 2H4.25ZM19.75 6C19.3358 6 19 6.33579 19 6.75C19 7.16421 19.3358 7.5 19.75 7.5H20.75C20.8881 7.5 21 7.61193 21 7.75V15.75C21 15.8881 20.8881 16 20.75 16H18.25C17.8358 16 17.5 16.3358 17.5 16.75V19.4393L14.2803 16.2197C14.1397 16.079 13.9489 16 13.75 16H12.5C12.0858 16 11.75 16.3358 11.75 16.75C11.75 17.1642 12.0858 17.5 12.5 17.5H13.4393L17.7197 21.7803C17.9342 21.9948 18.2568 22.059 18.537 21.9429C18.8173 21.8268 19 21.5533 19 21.25V17.5H20.75C21.7165 17.5 22.5 16.7165 22.5 15.75V7.75C22.5 6.7835 21.7165 6 20.75 6H19.75Z"
        fill="white" />
</svg>