<svg id="Logo" xmlns="http://www.w3.org/2000/svg" viewBox="0 0 406.43 136.437">
  <path class="cls-1" d="M94.796,134.326h-22.452L17.654,68.314v66.012H0V0h17.654v64.093L70.425,0h21.108l-54.498,65.437,57.76,68.89Z"/>
  <path class="cls-1" d="M97.291,12.856c0-6.141,4.605-10.361,10.362-10.361,5.949,0,10.554,4.221,10.554,10.361,0,5.949-4.605,10.555-10.554,10.555-5.757,0-10.362-4.605-10.362-10.555ZM99.402,134.326V37.804h16.503v96.522h-16.503Z"/>
  <path class="cls-1" d="M126.842,134.326V37.804h12.281l3.646,12.089h.959c3.646-5.565,13.433-14.2,27.633-14.2,22.26,0,38.763,16.695,38.763,42.408v56.226h-16.695v-55.649c0-16.887-10.362-27.441-24.562-27.441-14.968,0-25.522,10.555-25.522,27.441v55.649h-16.503Z"/>
  <path class="cls-1" d="M217.223,85.969c0-29.552,20.341-50.276,44.52-50.276,15.352,0,26.481,9.979,29.168,13.816h.959V0h16.503v134.326h-12.281l-3.646-12.089h-.959c-2.878,3.838-14.008,14.199-29.744,14.199-24.179,0-44.52-20.916-44.52-50.468ZM291.87,85.969c0-20.725-13.433-34.733-29.168-34.733-15.543,0-28.976,14.009-28.976,34.733,0,20.917,13.433,34.925,28.976,34.925,15.735,0,29.168-14.008,29.168-34.925Z"/>
  <path class="cls-1" d="M405.662,93.261h-73.304c2.495,17.463,14.008,28.017,29.936,28.017,11.514,0,18.998-5.181,23.795-12.856h17.079c-5.757,14.584-21.108,28.016-41.065,28.016-26.098,0-46.63-21.107-46.63-50.468,0-28.593,21.108-50.276,46.438-50.276s44.52,20.916,44.52,47.974c0,4.03-.192,7.292-.768,9.595ZM332.167,79.636h58.144c-1.919-16.887-13.241-28.783-28.4-28.783-14.584,0-27.249,11.321-29.744,28.783Z"/>
</svg>