<svg width="32" height="32" viewBox="0 0 32 32" fill="none" xmlns="http://www.w3.org/2000/svg">

<path d="M14.9152 4.30474C15.5077 3.96559 16.2795 3.96406 16.8715 4.30474C19.8498 5.98763 22.829 7.66789 25.8068 9.3518C26.3669 9.66729 26.7415 10.2906 26.7358 10.936V21.0609C26.74 21.733 26.3283 22.3712 25.7375 22.6795C22.7689 24.3532 19.802 26.0288 16.834 27.7024C16.2292 28.0482 15.442 28.0216 14.8561 27.6475C13.9661 27.1315 13.0746 26.6182 12.1846 26.1028C12.0027 25.9944 11.7977 25.9081 11.6693 25.7317C11.7828 25.5787 11.9858 25.5596 12.1507 25.4928C12.5222 25.3747 12.8634 25.1851 13.2047 25.0011C13.291 24.942 13.3963 24.9647 13.4791 25.0175C14.2401 25.4538 14.9944 25.9029 15.758 26.335C15.9209 26.4291 16.0858 26.3042 16.225 26.2266C19.138 24.5802 22.0546 22.9401 24.9672 21.2932C25.0751 21.2413 25.1347 21.1267 25.126 21.0085C25.128 17.6685 25.1265 14.3279 25.127 10.9879C25.1393 10.8538 25.0617 10.7304 24.9404 10.6755C21.9822 9.00959 19.0255 7.34108 16.0678 5.6747C16.0166 5.63947 15.9559 5.62057 15.8937 5.62048C15.8315 5.62038 15.7708 5.63911 15.7194 5.67419C12.7617 7.34108 9.80553 9.01112 6.84783 10.677C6.72698 10.732 6.64587 10.8533 6.66026 10.9879C6.66077 14.3279 6.66026 17.6685 6.66026 21.009C6.65513 21.0667 6.66779 21.1245 6.69655 21.1748C6.72531 21.2251 6.76878 21.2653 6.82111 21.2901C7.61038 21.7377 8.40068 22.1821 9.19047 22.6281C9.63541 22.8676 10.1817 23.0099 10.6719 22.8264C11.1045 22.6713 11.4077 22.2298 11.3995 21.7705C11.4036 18.45 11.3974 15.129 11.4026 11.809C11.3917 11.6616 11.5316 11.5398 11.6749 11.5537C12.0541 11.5511 12.4339 11.5486 12.8131 11.5547C12.9714 11.5511 13.0803 11.7098 13.0608 11.8584C13.0592 15.1999 13.0649 18.5415 13.0582 21.883C13.0592 22.7736 12.6934 23.7426 11.8696 24.1784C10.8548 24.7041 9.60051 24.5926 8.59796 24.0885C7.73004 23.6553 6.90179 23.1441 6.04928 22.68C5.45685 22.3733 5.04723 21.7326 5.0514 21.061V10.936C5.04519 10.2773 5.43472 9.64261 6.01226 9.33172C8.98026 7.65674 11.9477 5.98049 14.9152 4.30474Z" fill="black"/>
<path d="M17.5045 11.3184C18.799 11.2351 20.1848 11.269 21.3496 11.9067C22.2515 12.3954 22.7515 13.421 22.7674 14.423C22.7422 14.5581 22.6009 14.6327 22.4719 14.6234C22.0964 14.6229 21.7207 14.6285 21.3451 14.6208C21.1858 14.627 21.0932 14.4801 21.0732 14.3392C20.9653 13.8598 20.7038 13.385 20.2526 13.1538C19.5599 12.807 18.7568 12.8244 18.0015 12.8316C17.4501 12.8609 16.8571 12.9087 16.39 13.2329C16.0313 13.4785 15.9224 13.9744 16.0504 14.3737C16.1711 14.6604 16.5021 14.7529 16.7729 14.8382C18.3329 15.2462 19.986 15.2056 21.5162 15.7425C22.1497 15.9614 22.7695 16.387 22.9863 17.0503C23.27 17.9393 23.1456 19.0019 22.5131 19.7156C22.0002 20.303 21.2531 20.6226 20.508 20.7962C19.5168 21.0173 18.4881 21.0229 17.4815 20.9248C16.5349 20.8168 15.5499 20.5682 14.8192 19.9232C14.1943 19.3807 13.8891 18.5353 13.9194 17.7194C13.9266 17.5816 14.0638 17.4855 14.1958 17.4968C14.5741 17.4938 14.9523 17.4928 15.3305 17.4974C15.4815 17.4865 15.5935 17.6171 15.6013 17.7595C15.6711 18.2162 15.8427 18.6956 16.241 18.9665C17.0097 19.4624 17.9742 19.4284 18.8544 19.4423C19.5836 19.4099 20.4021 19.4002 20.9972 18.9182C21.3112 18.6433 21.4042 18.1834 21.3193 17.7877C21.2274 17.4537 20.878 17.298 20.5779 17.1962C19.0379 16.7091 17.3663 16.8859 15.8412 16.335C15.2221 16.1162 14.6233 15.7025 14.3855 15.0664C14.0535 14.1661 14.2056 13.0526 14.9044 12.363C15.5858 11.677 16.5694 11.4129 17.5045 11.3184Z" fill="black"/>


</svg>
