<svg width="24" height="24" viewBox="0 0 24 24" fill="none" xmlns="http://www.w3.org/2000/svg">
<path fill-rule="evenodd" clip-rule="evenodd" d="M12 .281a.75.75 0 0 1 .754.75v5.007l4.533-4.38.089-.072a.765.765 0 0 1 .735-.081.75.75 0 0 1 .459.69v4.87h1.676l.15.015a.75.75 0 0 1 .604.735v8.337a.75.75 0 0 1-.754.75H18.57v4.887a.75.75 0 0 1-.468.693.765.765 0 0 1-.825-.165l-4.524-4.527v5.172c0 .413-.338.75-.754.75a.75.75 0 0 1-.754-.75v-5.172l-4.527 4.529a.765.765 0 0 1-.822.165.75.75 0 0 1-.468-.694v-4.888H3.754a.75.75 0 0 1-.754-.75V7.815l.015-.15a.75.75 0 0 1 .74-.6H5.43V2.195l.009-.111a.75.75 0 0 1 .453-.58.765.765 0 0 1 .82.153l4.534 4.38V1.031c0-.414.338-.75.754-.75ZM6.939 14l.001 5.976 4.305-4.308V9.654Zm5.816 1.67 4.306 4.306V14l-4.305-4.346Zm5.6-2.502a.75.75 0 0 1 .217.525v1.718h.918V8.565h-6.288Zm-13.845 2.243h.92v-1.719a.75.75 0 0 1 .217-.525l4.55-4.596H5.509Zm2.43-8.337h3.2L6.939 3.978Zm6.92 0h3.2l-3.2-3.096Z" fill="currentColor"/>
</svg>
