<svg width="32" height="32" viewBox="0 0 32 32" fill="none" xmlns="http://www.w3.org/2000/svg">
<path d="M3.51153 11.9146H7.69319C8.92054 11.9249 9.80992 12.2788 10.3613 12.9756C10.9127 13.6725 11.0947 14.6243 10.9074 15.831C10.8347 16.3824 10.6734 16.9232 10.4237 17.4537C10.1844 17.9843 9.85173 18.4627 9.42514 18.8892C8.90494 19.4301 8.34852 19.7733 7.7556 19.9191C7.16268 20.0648 6.54886 20.1375 5.91442 20.1375H4.04204L3.44912 23.1021H1.28027L3.51153 11.9146ZM5.33711 13.6934L4.40091 18.3743C4.46333 18.3846 4.52574 18.3899 4.58815 18.3899C4.66087 18.3899 4.73388 18.3899 4.8066 18.3899C5.8052 18.4002 6.63747 18.3016 7.30311 18.0935C7.96875 17.875 8.41623 17.1158 8.64498 15.8154C8.83222 14.7232 8.64498 14.0938 8.08327 13.9274C7.53186 13.7611 6.84031 13.6831 6.00804 13.6934C5.88322 13.7037 5.76369 13.709 5.64917 13.709C5.54525 13.709 5.43602 13.709 5.3215 13.709L5.33711 13.6934Z" fill="black"/>
<path d="M13.3782 8.93439H15.5315L14.9229 11.9146H16.8577C17.9187 11.9355 18.7092 12.1539 19.2294 12.5699C19.7599 12.9859 19.9159 13.7767 19.6975 14.9416L18.6521 20.1375H16.4676L17.4662 15.1757C17.5702 14.6555 17.539 14.2863 17.3726 14.0678C17.2063 13.8494 16.8474 13.7402 16.296 13.7402L14.5641 13.7246L13.2846 20.1375H11.1313L13.3782 8.93439Z" fill="black"/>
<path d="M22.0096 11.9146H26.1912C27.4186 11.9249 28.308 12.2788 28.8594 12.9756C29.4108 13.6725 29.5927 14.6243 29.4055 15.831C29.3328 16.3824 29.1714 16.9232 28.9218 17.4537C28.6824 17.9843 28.3498 18.4627 27.9232 18.8892C27.403 19.4301 26.8466 19.7733 26.2536 19.9191C25.6607 20.0648 25.0469 20.1375 24.4125 20.1375H22.5401L21.9472 23.1021H19.7783L22.0096 11.9146ZM23.8352 13.6934L22.899 18.3743C22.9614 18.3846 23.0238 18.3899 23.0862 18.3899C23.1589 18.3899 23.2319 18.3899 23.3046 18.3899C24.3032 18.4002 25.1355 18.3016 25.8012 18.0935C26.4668 17.875 26.9143 17.1158 27.143 15.8154C27.3303 14.7232 27.143 14.0938 26.5813 13.9274C26.0299 13.7611 25.3384 13.6831 24.5061 13.6934C24.3813 13.7037 24.2617 13.709 24.1472 13.709C24.0433 13.709 23.9341 13.709 23.8195 13.709L23.8352 13.6934Z" fill="black"/>
</svg>
