<svg width="32" height="32" viewBox="0 0 32 32" fill="none" xmlns="http://www.w3.org/2000/svg">
<path fill-rule="evenodd" clip-rule="evenodd" d="M16 5C9.92487 5 5 9.92487 5 16C5 18.6268 5.92074 21.0385 7.45708 22.9301C8.5764 21.0808 10.2802 19.6232 12.3131 18.8144C10.9704 17.735 10.1111 16.079 10.1111 14.2222C10.1111 10.9698 12.7477 8.33328 16 8.33328C19.2523 8.33328 21.8889 10.9698 21.8889 14.2222C21.8889 16.079 21.0296 17.735 19.6869 18.8144C21.7198 19.6232 23.4236 21.0808 24.5429 22.9301C26.0793 21.0385 27 18.6268 27 16C27 9.92487 22.0751 5 16 5ZM23.0845 24.4152C21.7538 21.8558 19.0798 20.1111 16 20.1111C12.9202 20.1111 10.2462 21.8558 8.91553 24.4152C10.8294 26.0281 13.3012 27 16 27C18.6988 27 21.1706 26.0281 23.0845 24.4152ZM3 16C3 8.8203 8.8203 3 16 3C23.1797 3 29 8.8203 29 16C29 23.1797 23.1797 29 16 29C8.8203 29 3 23.1797 3 16ZM16 10.3333C13.8522 10.3333 12.1111 12.0744 12.1111 14.2222C12.1111 16.37 13.8522 18.1111 16 18.1111C18.1478 18.1111 19.8889 16.37 19.8889 14.2222C19.8889 12.0744 18.1478 10.3333 16 10.3333Z" fill="black"/>
</svg>
