<svg width="24" height="24" viewBox="0 0 24 24" fill="none" xmlns="http://www.w3.org/2000/svg">
<path d="M7 3H5C3.89543 3 3 3.89543 3 5V19C3 20.1046 3.89543 21 5 21H7" stroke="black" stroke-width="1.5" stroke-linecap="round"/>
<path d="M17 3H19C20.1046 3 21 3.89543 21 5V19C21 20.1046 20.1046 21 19 21H17" stroke="black" stroke-width="1.5" stroke-linecap="round"/>
<path d="M15.25 16H14.368C13.9893 16 13.643 15.786 13.4736 15.4472L10.0264 8.55279C9.857 8.214 9.51074 8 9.13197 8H8.25" stroke="black" stroke-width="1.5" stroke-linecap="round"/>
<path d="M17 8H16.4142C16.149 8 15.8946 8.10536 15.7071 8.29289L8.29289 15.7071C8.10536 15.8946 7.851 16 7.58579 16L7 16" stroke="black" stroke-width="1.5" stroke-linecap="round"/>
</svg>
