<svg width="32" height="32" viewBox="0 0 32 32" fill="none" xmlns="http://www.w3.org/2000/svg">
<path d="M15.9143 6.00562C10.8498 6.00562 11.166 8.20189 11.166 8.20189L11.1716 10.4773H16.0046V11.1604H9.25202C9.25202 11.1604 6.01123 10.7929 6.01123 15.903C6.01123 21.0132 8.83987 20.832 8.83987 20.832H10.528V18.4606C10.528 18.4606 10.437 15.632 13.3115 15.632H18.1049C18.1049 15.632 20.798 15.6755 20.798 13.0292V8.65365C20.798 8.65365 21.2071 6.00562 15.9143 6.00562ZM13.2494 7.53578C13.3636 7.53568 13.4767 7.5581 13.5822 7.60176C13.6878 7.64542 13.7836 7.70945 13.8644 7.79021C13.9452 7.87097 14.0092 7.96686 14.0529 8.07239C14.0965 8.17792 14.1189 8.29103 14.1188 8.40523C14.1189 8.51944 14.0965 8.63255 14.0529 8.73808C14.0092 8.84361 13.9452 8.9395 13.8644 9.02026C13.7836 9.10101 13.6878 9.16505 13.5822 9.20871C13.4767 9.25237 13.3636 9.27479 13.2494 9.27468C13.1352 9.27479 13.0221 9.25237 12.9165 9.20871C12.811 9.16505 12.7151 9.10101 12.6344 9.02026C12.5536 8.9395 12.4896 8.84361 12.4459 8.73808C12.4022 8.63255 12.3798 8.51944 12.3799 8.40523C12.3798 8.29103 12.4022 8.17792 12.4459 8.07239C12.4896 7.96686 12.5536 7.87097 12.6344 7.79021C12.7151 7.70945 12.811 7.64542 12.9165 7.60176C13.0221 7.5581 13.1352 7.53568 13.2494 7.53578Z" fill="black"/>
<path d="M16.0582 25.8517C21.1227 25.8517 20.8065 23.6555 20.8065 23.6555L20.8008 21.3801H15.9678V20.697H22.7203C22.7203 20.697 25.9611 21.0645 25.9611 15.9543C25.9611 10.8442 23.1325 11.0254 23.1325 11.0254H21.4444V13.3967C21.4444 13.3967 21.5354 16.2253 18.6609 16.2253H13.8674C13.8674 16.2253 11.1743 16.1818 11.1743 18.8282V23.2038C11.1743 23.2038 10.7654 25.8517 16.0581 25.8517H16.0582ZM18.7231 24.3217C18.6089 24.3218 18.4957 24.2994 18.3902 24.2557C18.2847 24.2121 18.1888 24.1481 18.108 24.0673C18.0273 23.9865 17.9632 23.8907 17.9196 23.7851C17.8759 23.6796 17.8535 23.5665 17.8536 23.4523C17.8535 23.3381 17.8759 23.2249 17.9196 23.1194C17.9632 23.0139 18.0273 22.918 18.108 22.8372C18.1888 22.7564 18.2847 22.6924 18.3902 22.6487C18.4957 22.6051 18.6088 22.5826 18.7231 22.5827C18.8373 22.5826 18.9504 22.6051 19.0559 22.6487C19.1614 22.6924 19.2573 22.7564 19.3381 22.8372C19.4188 22.9179 19.4829 23.0138 19.5265 23.1193C19.5702 23.2249 19.5926 23.338 19.5925 23.4522C19.5926 23.5664 19.5702 23.6795 19.5265 23.785C19.4829 23.8906 19.4188 23.9865 19.3381 24.0672C19.2573 24.148 19.1614 24.212 19.0559 24.2557C18.9504 24.2993 18.8373 24.3218 18.7231 24.3217Z" fill="black"/>
</svg>
