<svg width="32" height="32" viewBox="0 0 32 32" fill="none" xmlns="http://www.w3.org/2000/svg">
<path d="M16 18.9517C17.3784 18.9517 18.4957 17.8344 18.4957 16.456C18.4957 15.0777 17.3784 13.9604 16 13.9604C14.6217 13.9604 13.5044 15.0777 13.5044 16.456C13.5044 17.8344 14.6217 18.9517 16 18.9517Z" fill="black"/>
<path fill-rule="evenodd" clip-rule="evenodd" d="M4.06892 14.9177C3.46654 15.4614 3.21739 15.9823 3.21739 16.4561C3.21739 16.9298 3.46654 17.4507 4.06892 17.9945C4.67125 18.5382 5.577 19.0557 6.74804 19.5029C9.08594 20.3955 12.3568 20.9604 16 20.9604C19.6432 20.9604 22.9141 20.3955 25.252 19.5029C26.423 19.0557 27.3288 18.5382 27.9311 17.9945C28.5335 17.4507 28.7826 16.9298 28.7826 16.4561C28.7826 15.9823 28.5335 15.4614 27.9311 14.9177C27.3288 14.3739 26.423 13.8564 25.252 13.4092C22.9141 12.5166 19.6432 11.9517 16 11.9517C12.3568 11.9517 9.08594 12.5166 6.74804 13.4092C5.577 13.8564 4.67125 14.3739 4.06892 14.9177ZM6.3138 12.2719C8.82259 11.314 12.2474 10.7343 16 10.7343C19.7526 10.7343 23.1774 11.314 25.6862 12.2719C26.9385 12.7501 27.9939 13.3343 28.7468 14.014C29.4997 14.6936 30 15.5178 30 16.4561C30 17.3943 29.4997 18.2185 28.7468 18.8981C27.9939 19.5778 26.9385 20.162 25.6862 20.6402C23.1774 21.5981 19.7526 22.1778 16 22.1778C12.2474 22.1778 8.82259 21.5981 6.3138 20.6402C5.06149 20.162 4.00613 19.5778 3.25318 18.8981C2.50029 18.2185 2 17.3943 2 16.4561C2 15.5178 2.50029 14.6936 3.25318 14.014C4.00613 13.3343 5.06149 12.7501 6.3138 12.2719Z" fill="black"/>
<path fill-rule="evenodd" clip-rule="evenodd" d="M11.3667 5.35424C10.5945 5.10445 10.0189 5.14912 9.6086 5.38599C9.19835 5.62285 8.87182 6.09906 8.70208 6.89264C8.53236 7.68612 8.53701 8.72931 8.73531 9.96702C9.1312 12.438 10.2774 15.5531 12.099 18.7082C13.9206 21.8633 16.0453 24.4135 17.9873 25.9919C18.96 26.7825 19.8611 27.3081 20.6332 27.5579C21.4053 27.8077 21.981 27.763 22.3912 27.5261C22.8015 27.2893 23.128 26.813 23.2977 26.0195C23.4675 25.226 23.4628 24.1828 23.2645 22.9451C22.8686 20.4741 21.7224 17.359 19.9008 14.2039C18.0792 11.0488 15.9546 8.49857 14.0125 6.92021C13.0398 6.12962 12.1387 5.604 11.3667 5.35424ZM14.7804 5.97549C16.8643 7.66922 19.0788 10.3453 20.9551 13.5952C22.8314 16.8451 24.0417 20.1009 24.4666 22.7525C24.6786 24.0761 24.7004 25.2822 24.4882 26.2741C24.2761 27.2659 23.8124 28.1113 22.9999 28.5804C22.1874 29.0495 21.2235 29.0283 20.2584 28.7162C19.2933 28.4039 18.2597 27.7821 17.2195 26.9366C15.1355 25.2429 12.9211 22.5668 11.0447 19.3169C9.16841 16.067 7.95808 12.8112 7.53325 10.1596C7.32119 8.83601 7.29945 7.62993 7.51161 6.638C7.72376 5.64616 8.1874 4.8008 8.99991 4.33169C9.81242 3.86259 10.7763 3.88375 11.7414 4.19595C12.7065 4.50817 13.7401 5.13004 14.7804 5.97549Z" fill="black"/>
<path fill-rule="evenodd" clip-rule="evenodd" d="M23.2977 6.89264C23.128 6.09906 22.8015 5.62285 22.3912 5.38599C21.981 5.14913 21.4053 5.10445 20.6332 5.35424C19.8611 5.604 18.96 6.12962 17.9873 6.92021C16.0453 8.49857 13.9206 11.0488 12.099 14.2039C10.2774 17.359 9.1312 20.4741 8.73531 22.9451C8.53701 24.1828 8.53236 25.226 8.70208 26.0195C8.87182 26.813 9.19835 27.2893 9.6086 27.5261C10.0189 27.763 10.5945 27.8077 11.3667 27.5579C12.1387 27.3081 13.0398 26.7825 14.0125 25.9919C15.9546 24.4135 18.0792 21.8633 19.9008 18.7082C21.7224 15.5531 22.8686 12.438 23.2645 9.96703C23.4628 8.72931 23.4675 7.68613 23.2977 6.89264ZM24.4666 10.1596C24.0417 12.8112 22.8314 16.067 20.9551 19.3169C19.0788 22.5668 16.8643 25.2429 14.7804 26.9366C13.7401 27.7821 12.7065 28.4039 11.7414 28.7162C10.7763 29.0283 9.81242 29.0495 8.99991 28.5804C8.1874 28.1113 7.72376 27.2659 7.51161 26.2741C7.29945 25.2822 7.32119 24.0761 7.53325 22.7525C7.95808 20.1009 9.16841 16.8451 11.0447 13.5952C12.9211 10.3453 15.1355 7.66922 17.2195 5.97549C18.2597 5.13004 19.2933 4.50817 20.2584 4.19595C21.2235 3.88375 22.1874 3.86259 22.9999 4.3317C23.8124 4.8008 24.2761 5.64616 24.4882 6.63801C24.7004 7.62994 24.6786 8.83601 24.4666 10.1596Z" fill="black"/>
</svg>
