<svg width="33" height="32" viewBox="0 0 33 32" fill="none" xmlns="http://www.w3.org/2000/svg">
<path fill-rule="evenodd" clip-rule="evenodd" d="M15.4101 1.69971C15.7638 1.40801 16.2081 1.24835 16.6668 1.24835C17.1271 1.24835 17.5729 1.40914 17.9271 1.7028C19.1688 2.71401 21.8568 5.22088 23.3438 9.08627C23.8477 10.396 24.2089 11.8501 24.3345 13.4395L28.1186 17.9804C28.3188 18.2159 28.4601 18.4957 28.5309 18.7966C28.601 19.0946 28.6 19.4049 28.5279 19.7023L26.993 26.6531L26.9923 26.6562C26.9181 26.9872 26.7609 27.2939 26.5356 27.5474C26.3102 27.801 26.0241 27.993 25.7041 28.1055C25.3841 28.218 25.0407 28.2473 24.7063 28.1905C24.3718 28.1338 24.0573 27.9929 23.7923 27.7812L20.3158 25H13.0174L9.54139 27.7808C9.27638 27.9926 8.96139 28.1338 8.62696 28.1906C8.29252 28.2473 7.94915 28.218 7.62914 28.1055C7.30914 27.993 7.023 27.801 6.79764 27.5474C6.57228 27.2939 6.41511 26.9872 6.34091 26.6562L6.34022 26.6531L4.80529 19.7023C4.73326 19.4049 4.7322 19.0946 4.80232 18.7966C4.87318 18.4955 5.01465 18.2155 5.21502 17.9799L8.9248 13.5377C9.04128 11.9073 9.40982 10.4176 9.92992 9.07859C11.4316 5.21245 14.1536 2.70616 15.4101 1.69971ZM22.3654 13.9762C22.356 13.9144 22.3524 13.8521 22.3546 13.7899C22.2591 12.3115 21.9302 10.982 21.4772 9.80439C20.1684 6.40229 17.7796 4.16244 16.6667 3.25566L16.6665 3.25589C15.5449 4.15312 13.1179 6.39473 11.7942 9.80271C11.3224 11.0174 10.985 12.3942 10.9042 13.9298C10.9041 13.9598 10.9026 13.9899 10.8998 14.0199C10.7823 16.5807 11.3795 19.5792 13.2517 23H20.0759C21.9196 19.56 22.4961 16.5469 22.3654 13.9762ZM26.5783 19.2561L24.2801 16.4983C24.0316 18.7116 23.3161 21.1324 21.9459 23.7428L25.0408 26.2187L26.5776 19.2593L26.5783 19.2561ZM9.00209 16.5653L6.75495 19.2561L6.75567 19.2593L8.29247 26.2187L11.382 23.7471C9.99788 21.1625 9.26624 18.7625 9.00209 16.5653ZM13.6665 28C13.6665 27.4477 14.1142 27 14.6665 27H18.6665C19.2188 27 19.6665 27.4477 19.6665 28C19.6665 28.5523 19.2188 29 18.6665 29H14.6665C14.1142 29 13.6665 28.5523 13.6665 28ZM18.1665 12C18.1665 12.8284 17.4949 13.5 16.6665 13.5C15.8381 13.5 15.1665 12.8284 15.1665 12C15.1665 11.1716 15.8381 10.5 16.6665 10.5C17.4949 10.5 18.1665 11.1716 18.1665 12Z" fill="black"/>
</svg>
