<svg width="32" height="32" viewBox="0 0 32 32" fill="none" xmlns="http://www.w3.org/2000/svg">
<path fill-rule="evenodd" clip-rule="evenodd" d="M23.5179 21.1107C23.688 23.2967 23.688 24.3215 23.688 25.44H18.6302C18.6302 25.1964 18.6346 24.9735 18.639 24.7475C18.6527 24.0449 18.667 23.3123 18.5531 21.8328C18.4027 19.6667 17.4699 19.1854 15.7548 19.1854H14.2353H7.8V15.2444H15.9956C18.162 15.2444 19.2452 14.5853 19.2452 12.8405C19.2452 11.3062 18.162 10.3764 15.9956 10.3764H7.8V6.52002H16.8982C21.8028 6.52002 24.24 8.8365 24.24 12.5368C24.24 15.3045 22.5249 17.1096 20.208 17.4104C22.1638 17.8015 23.3072 18.9146 23.5179 21.1107Z" fill="black"/>
<path d="M7.8 25.44V22.5021H13.1479C14.0412 22.5021 14.2351 23.1647 14.2351 23.5598V25.44H7.8Z" fill="black"/>
</svg>
