<svg width="33" height="32" viewBox="0 0 33 32" fill="none" xmlns="http://www.w3.org/2000/svg">
<path fill-rule="evenodd" clip-rule="evenodd" d="M14.3743 7.87742L15.0064 5.0791C15.4411 5.0269 15.8838 5 16.3333 5C16.7827 5 17.2254 5.0269 17.6601 5.0791L18.2922 7.87742L18.8405 8.05015C19.3061 8.19684 19.7542 8.38339 20.1808 8.60587L20.6908 8.87185L23.1167 7.33995C23.815 7.88778 24.4455 8.51826 24.9933 9.21658L23.4614 11.6425L23.7274 12.1525C23.9499 12.5791 24.1364 13.0272 24.2831 13.4928L24.4558 14.0411L27.2541 14.6732C27.3064 15.1078 27.3333 15.5506 27.3333 16C27.3333 16.4494 27.3064 16.8922 27.2541 17.3268L24.4558 17.9589L24.2831 18.5072C24.1364 18.9728 23.9499 19.4209 23.7274 19.8475L23.4614 20.3575L24.9933 22.7834C24.4455 23.4817 23.815 24.1122 23.1167 24.6601L20.6908 23.1281L20.1808 23.3941C19.7542 23.6166 19.3061 23.8032 18.8405 23.9498L18.2922 24.1226L17.6601 26.9209C17.2254 26.9731 16.7827 27 16.3333 27C15.8838 27 15.4411 26.9731 15.0064 26.9209L14.3743 24.1226L13.8261 23.9498C13.3604 23.8032 12.9123 23.6166 12.4858 23.3941L11.9758 23.1281L9.54983 24.6601C8.85151 24.1122 8.22103 23.4818 7.6732 22.7834L9.20511 20.3575L8.93913 19.8475C8.71665 19.4209 8.5301 18.9728 8.38341 18.5072L8.21068 17.9589L5.41235 17.3268C5.36015 16.8922 5.33325 16.4494 5.33325 16C5.33325 15.5506 5.36015 15.1078 5.41235 14.6732L8.21068 14.0411L8.38341 13.4928C8.5301 13.0272 8.71665 12.5791 8.93913 12.1525L9.20511 11.6425L7.6732 9.21657C8.22103 8.51825 8.85151 7.88777 9.54983 7.33994L11.9758 8.87186L12.4858 8.60587C12.9123 8.38339 13.3604 8.19684 13.8261 8.05015L14.3743 7.87742ZM16.3333 3C15.5387 3 14.76 3.0714 14.0034 3.20837L13.352 3.3263L12.6726 6.33412C12.4744 6.40919 12.2792 6.49017 12.0872 6.57683L9.48077 4.93096L8.93682 5.3079C7.65031 6.19942 6.53267 7.31705 5.64115 8.60357L5.26421 9.14752L6.91009 11.7539C6.82343 11.946 6.74245 12.1412 6.66738 12.3393L3.65955 13.0187L3.54162 13.6701C3.40465 14.4267 3.33325 15.2055 3.33325 16C3.33325 16.7945 3.40465 17.5733 3.54162 18.3299L3.65955 18.9813L6.66738 19.6607C6.74245 19.8588 6.82343 20.054 6.91009 20.2461L5.26421 22.8525L5.64115 23.3964C6.53267 24.6829 7.65031 25.8006 8.93682 26.6921L9.48077 27.069L12.0872 25.4232C12.2792 25.5098 12.4744 25.5908 12.6726 25.6659L13.352 28.6737L14.0034 28.7916C14.76 28.9286 15.5387 29 16.3333 29C17.1278 29 17.9065 28.9286 18.6631 28.7916L19.3145 28.6737L19.9939 25.6659C20.1921 25.5908 20.3873 25.5098 20.5793 25.4232L23.1857 27.069L23.7297 26.6921C25.0162 25.8006 26.1338 24.6829 27.0254 23.3964L27.4023 22.8525L25.7564 20.2461C25.8431 20.054 25.9241 19.8588 25.9991 19.6607L29.007 18.9813L29.1249 18.3299C29.2619 17.5733 29.3333 16.7945 29.3333 16C29.3333 15.2055 29.2619 14.4267 29.1249 13.6701L29.0069 13.0187L25.9991 12.3393C25.9241 12.1412 25.8431 11.946 25.7564 11.7539L27.4023 9.14752L27.0254 8.60358C26.1338 7.31706 25.0162 6.19942 23.7297 5.3079L23.1857 4.93096L20.5793 6.57683C20.3873 6.49016 20.1921 6.40919 19.9939 6.33412L19.3145 3.3263L18.6631 3.20837C17.9065 3.0714 17.1278 3 16.3333 3ZM13.3333 16C13.3333 14.3431 14.6764 13 16.3333 13C17.9901 13 19.3333 14.3431 19.3333 16C19.3333 17.6569 17.9901 19 16.3333 19C14.6764 19 13.3333 17.6569 13.3333 16ZM16.3333 11C13.5718 11 11.3333 13.2386 11.3333 16C11.3333 18.7614 13.5718 21 16.3333 21C19.0947 21 21.3333 18.7614 21.3333 16C21.3333 13.2386 19.0947 11 16.3333 11Z" fill="black"/>
</svg>
