<svg viewBox="0 0 32 32" xmlns="http://www.w3.org/2000/svg">    <path fill="#E01E5A" d="M7.908 19.7a2.94 2.94 0 0 1-2.943 2.943 2.94 2.94 0 0 1-2.943-2.942 2.94 2.94 0 0 1 2.943-2.943h2.943v2.943Zm1.471 0a2.94 2.94 0 0 1 2.943-2.942 2.94 2.94 0 0 1 2.942 2.943v7.356A2.94 2.94 0 0 1 12.322 30a2.94 2.94 0 0 1-2.943-2.943v-7.356Z"></path>    <path fill="#36C5F0" d="M12.322 7.885a2.94 2.94 0 0 1-2.943-2.942A2.94 2.94 0 0 1 12.322 2a2.94 2.94 0 0 1 2.942 2.943v2.942h-2.942Zm0 1.494a2.94 2.94 0 0 1 2.942 2.943 2.94 2.94 0 0 1-2.942 2.942h-7.38A2.94 2.94 0 0 1 2 12.322a2.94 2.94 0 0 1 2.943-2.943h7.379Z"></path>    <path fill="#2EB67D" d="M24.115 12.322a2.94 2.94 0 0 1 2.942-2.943A2.94 2.94 0 0 1 30 12.322a2.94 2.94 0 0 1-2.943 2.942h-2.942v-2.942Zm-1.472 0a2.94 2.94 0 0 1-2.942 2.942 2.94 2.94 0 0 1-2.943-2.942v-7.38A2.94 2.94 0 0 1 19.701 2a2.94 2.94 0 0 1 2.942 2.943v7.379Z"></path>    <path fill="#ECB22E" d="M19.7 24.115a2.94 2.94 0 0 1 2.943 2.942A2.94 2.94 0 0 1 19.701 30a2.94 2.94 0 0 1-2.943-2.943v-2.942h2.943Zm0-1.472a2.94 2.94 0 0 1-2.942-2.942 2.94 2.94 0 0 1 2.943-2.943h7.379a2.94 2.94 0 0 1 2.942 2.943 2.94 2.94 0 0 1-2.942 2.942H19.7Z"></path></svg>
