<svg width="24" height="24" viewBox="0 0 24 24" fill="none" xmlns="http://www.w3.org/2000/svg">
<path fill-rule="evenodd" clip-rule="evenodd" d="M16.4367 1.41407C16.4124 1.396 16.3869 1.37929 16.36 1.36409C16.0854 1.20859 15.7419 1.24698 15.5084 1.45928L4.5084 11.4593C4.285 11.6624 4.20949 11.9819 4.31836 12.2635C4.36897 12.3944 4.45459 12.5046 4.56207 12.585C4.68578 12.6777 4.83847 12.7308 5.00006 12.7308L9.10856 12.7308L7.28339 21.8567C7.22923 22.1275 7.33254 22.4019 7.5432 22.5705C7.5733 22.5946 7.60558 22.6165 7.63991 22.6359C7.91456 22.7914 8.25809 22.7531 8.49162 22.5408L19.4916 12.5408C19.715 12.3377 19.7905 12.0182 19.6817 11.7366C19.6319 11.6078 19.5483 11.4992 19.4434 11.4191C19.3187 11.324 19.1639 11.2692 19 11.2692H14.8915L16.7166 2.14339C16.7725 1.86411 16.6609 1.58095 16.4367 1.41407Z" fill="black"/>
</svg>
