<svg width="32" height="32" viewBox="0 0 32 32" fill="none" xmlns="http://www.w3.org/2000/svg">

        <path
            d="M26.0049 6.56937C23.5108 2.97699 18.5456 1.92445 14.9761 4.1897L8.68369 8.21682C6.96758 9.29225 5.77775 11.0541 5.43453 13.0448C5.13708 14.7151 5.38877 16.4312 6.18962 17.9185C5.64047 18.7422 5.27436 19.6575 5.1142 20.6185C4.74809 22.655 5.2286 24.76 6.41843 26.4304C8.93538 30.0228 13.8778 31.0753 17.4472 28.81L23.7396 24.8058C25.4557 23.7304 26.6455 21.9685 26.9888 19.9778C27.2862 18.3075 27.0345 16.5914 26.2337 15.1041C26.7828 14.2804 27.1489 13.3651 27.3091 12.4041C27.6981 10.3448 27.2176 8.23971 26.0049 6.56937Z"
            fill="currentColor" />
        <path
            d="M14.3585 26.7738C12.322 27.3 10.1941 26.4992 9.00423 24.7831C8.27203 23.7763 7.99745 22.5178 8.20338 21.2822C8.24914 21.0763 8.29491 20.8932 8.34067 20.6873L8.45508 20.3212L8.77542 20.55C9.5305 21.0992 10.3542 21.511 11.2466 21.7856L11.4754 21.8543L11.4525 22.0831C11.4297 22.4034 11.5212 22.7466 11.7042 23.0212C12.0703 23.5475 12.711 23.7992 13.3288 23.639C13.4661 23.5932 13.6034 23.5475 13.7178 23.4788L19.9873 19.4746C20.3076 19.2687 20.5135 18.9712 20.5822 18.6051C20.6508 18.239 20.5593 17.85 20.3534 17.5526C19.9873 17.0263 19.3466 16.7975 18.7288 16.9577C18.5915 17.0034 18.4542 17.0492 18.3398 17.1178L15.9373 18.6509C15.5483 18.9026 15.1136 19.0856 14.6559 19.2C12.6195 19.7263 10.4915 18.9254 9.30169 17.2093C8.59237 16.2026 8.29491 14.9441 8.52372 13.7085C8.72965 12.5187 9.46186 11.4432 10.4915 10.8026L16.7839 6.79833C17.1729 6.54663 17.6076 6.36358 18.0652 6.2263C20.1017 5.70002 22.2297 6.50087 23.4195 8.21697C24.1517 9.22375 24.4263 10.4822 24.2203 11.7178C24.1746 11.9238 24.1288 12.1068 24.0602 12.3127L23.9458 12.6788L23.6254 12.45C22.8703 11.9009 22.0466 11.489 21.1542 11.2144L20.9254 11.1458L20.9483 10.917C20.9712 10.5966 20.8797 10.2534 20.6966 9.97884C20.3305 9.45257 19.6898 9.22375 19.072 9.38392C18.9347 9.42968 18.7974 9.47545 18.683 9.54409L12.4136 13.5483C12.0932 13.7543 11.8873 14.0517 11.8186 14.4178C11.75 14.7839 11.8415 15.1729 12.0474 15.4704C12.4136 15.9966 13.0542 16.2254 13.672 16.0653C13.8093 16.0195 13.9466 15.9738 14.061 15.9051L16.4636 14.3721C16.8525 14.1204 17.2873 13.9373 17.7449 13.8C19.7813 13.2738 21.9093 14.0746 23.0991 15.7907C23.8313 16.7975 24.1059 18.056 23.9 19.2915C23.6941 20.4814 22.9619 21.5568 21.9322 22.1975L15.6398 26.2017C15.2508 26.4534 14.8161 26.6365 14.3585 26.7738Z"
            fill="currentColor" class="text-white dark:invert"  />

</svg>
