<svg width="32" height="32" viewBox="0 0 32 32" fill="none" xmlns="http://www.w3.org/2000/svg">
<path fill-rule="evenodd" clip-rule="evenodd" d="M6.66659 6.33331C6.48249 6.33331 6.33325 6.48255 6.33325 6.66665V18.6666C6.33325 18.8507 6.48249 19 6.66659 19H9.99992C10.5522 19 10.9999 19.4477 10.9999 20V23.5858L15.2928 19.2929C15.4803 19.1053 15.7347 19 15.9999 19H25.3333C25.5173 19 25.6666 18.8507 25.6666 18.6666V6.66665C25.6666 6.48255 25.5173 6.33331 25.3333 6.33331H6.66659ZM4.33325 6.66665C4.33325 5.37798 5.37792 4.33331 6.66659 4.33331H25.3333C26.6219 4.33331 27.6666 5.37798 27.6666 6.66665V18.6666C27.6666 19.9553 26.6219 21 25.3333 21H16.4141L10.707 26.7071C10.421 26.9931 9.99091 27.0786 9.61724 26.9239C9.24356 26.7691 8.99992 26.4044 8.99992 26V21H6.66659C5.37792 21 4.33325 19.9553 4.33325 18.6666V6.66665Z" fill="black"/>
</svg>
