<svg width="32" height="32" viewBox="0 0 32 32" fill="none" xmlns="http://www.w3.org/2000/svg">
<path fill-rule="evenodd" clip-rule="evenodd" d="M9.99992 7C8.52716 7 7.33325 8.19391 7.33325 9.66667C7.33325 11.1394 8.52716 12.3333 9.99992 12.3333C11.4727 12.3333 12.6666 11.1394 12.6666 9.66667C12.6666 8.19391 11.4727 7 9.99992 7ZM5.33325 9.66667C5.33325 7.08934 7.42259 5 9.99992 5C12.5772 5 14.6666 7.08934 14.6666 9.66667C14.6666 12.244 12.5772 14.3333 9.99992 14.3333C7.42259 14.3333 5.33325 12.244 5.33325 9.66667Z" fill="black"/>
<path fill-rule="evenodd" clip-rule="evenodd" d="M9.99997 14.3333C7.77301 14.3333 5.84077 15.6026 4.89037 17.4617C4.63899 17.9535 4.03655 18.1484 3.5448 17.897C3.05304 17.6456 2.85818 17.0432 3.10956 16.5514C4.38847 14.0496 6.99293 12.3333 9.99997 12.3333C10.5523 12.3333 11 12.781 11 13.3333C11 13.8856 10.5523 14.3333 9.99997 14.3333Z" fill="black"/>
<path fill-rule="evenodd" clip-rule="evenodd" d="M15.9999 15.6667C14.5272 15.6667 13.3333 16.8606 13.3333 18.3334C13.3333 19.8061 14.5272 21 15.9999 21C17.4727 21 18.6666 19.8061 18.6666 18.3334C18.6666 16.8606 17.4727 15.6667 15.9999 15.6667ZM11.3333 18.3334C11.3333 15.756 13.4226 13.6667 15.9999 13.6667C18.5772 13.6667 20.6666 15.756 20.6666 18.3334C20.6666 20.9107 18.5772 23 15.9999 23C13.4226 23 11.3333 20.9107 11.3333 18.3334Z" fill="black"/>
<path fill-rule="evenodd" clip-rule="evenodd" d="M16 23C13.773 23 11.8408 24.2692 10.8904 26.1284C10.639 26.6202 10.0366 26.815 9.5448 26.5637C9.05304 26.3123 8.85818 25.7098 9.10956 25.2181C10.3885 22.7163 12.9929 21 16 21C19.007 21 21.6115 22.7163 22.8904 25.2181C23.1418 25.7098 22.9469 26.3123 22.4551 26.5637C21.9634 26.815 21.3609 26.6202 21.1096 26.1284C20.1592 24.2692 18.2269 23 16 23Z" fill="black"/>
<path fill-rule="evenodd" clip-rule="evenodd" d="M21.9999 7C20.5272 7 19.3333 8.19391 19.3333 9.66667C19.3333 11.1394 20.5272 12.3333 21.9999 12.3333C23.4727 12.3333 24.6666 11.1394 24.6666 9.66667C24.6666 8.19391 23.4727 7 21.9999 7ZM17.3333 9.66667C17.3333 7.08934 19.4226 5 21.9999 5C24.5772 5 26.6666 7.08934 26.6666 9.66667C26.6666 12.244 24.5772 14.3333 21.9999 14.3333C19.4226 14.3333 17.3333 12.244 17.3333 9.66667Z" fill="black"/>
<path fill-rule="evenodd" clip-rule="evenodd" d="M21 13.3333C21 12.781 21.4477 12.3333 22 12.3333C25.007 12.3333 27.6115 14.0496 28.8904 16.5514C29.1418 17.0432 28.9469 17.6456 28.4552 17.897C27.9634 18.1484 27.361 17.9535 27.1096 17.4617C26.1592 15.6026 24.227 14.3333 22 14.3333C21.4477 14.3333 21 13.8856 21 13.3333Z" fill="black"/>
</svg>
