<svg width="32" height="32" viewBox="0 0 32 32" fill="none" xmlns="http://www.w3.org/2000/svg">
<path fill-rule="evenodd" clip-rule="evenodd" d="M7.33341 7.66667C7.33341 6.19391 8.52732 5 10.0001 5C11.4728 5 12.6667 6.19391 12.6667 7.66667C12.6667 9.13943 11.4728 10.3333 10.0001 10.3333C8.52732 10.3333 7.33341 9.13943 7.33341 7.66667ZM10.0001 3C7.42275 3 5.33341 5.08934 5.33341 7.66667C5.33341 8.99161 5.88557 10.1876 6.77233 11.037C5.1915 11.7641 3.89839 13.0083 3.10956 14.5514C2.85818 15.0432 3.05304 15.6456 3.5448 15.897C4.03655 16.1484 4.63899 15.9535 4.89037 15.4618C5.84077 13.6026 7.77301 12.3333 9.99997 12.3333C12.2232 12.3333 14.1527 13.5984 15.1048 15.4525C15.1524 15.5482 15.2155 15.6367 15.2927 15.7139C15.4811 15.9024 15.7371 16.0066 16 16.0068C16.1343 16.0069 16.2704 15.9799 16.4002 15.923C16.5134 15.8737 16.6179 15.8032 16.7073 15.7139C16.7845 15.6367 16.8476 15.5481 16.8952 15.4524C17.8473 13.5983 19.7767 12.3333 22 12.3333C24.2269 12.3333 26.1592 13.6026 27.1096 15.4618C27.3609 15.9535 27.9634 16.1484 28.4551 15.897C28.9469 15.6456 29.1418 15.0432 28.8904 14.5514C28.1016 13.0084 26.8085 11.7641 25.2278 11.0371C26.1146 10.1876 26.6667 8.99164 26.6667 7.66667C26.6667 5.08934 24.5774 3 22.0001 3C19.4228 3 17.3334 5.08934 17.3334 7.66667C17.3334 8.99161 17.8856 10.1876 18.7723 11.037C17.6902 11.5347 16.743 12.2747 16 13.187C15.257 12.2747 14.3098 11.5348 13.2278 11.0371C14.1146 10.1876 14.6667 8.99164 14.6667 7.66667C14.6667 5.08934 12.5774 3 10.0001 3ZM10.0001 17.6667C8.52732 17.6667 7.33341 18.8606 7.33341 20.3333C7.33341 21.8061 8.52732 23 10.0001 23C11.4728 23 12.6667 21.8061 12.6667 20.3333C12.6667 18.8606 11.4728 17.6667 10.0001 17.6667ZM5.33341 20.3333C5.33341 17.756 7.42275 15.6667 10.0001 15.6667C12.5774 15.6667 14.6667 17.756 14.6667 20.3333C14.6667 21.6583 14.1146 22.8543 13.2278 23.7038C14.3098 24.2014 15.257 24.9414 16 25.8536C16.743 24.9413 17.6902 24.2014 18.7723 23.7037C17.8856 22.8542 17.3334 21.6583 17.3334 20.3333C17.3334 17.756 19.4228 15.6667 22.0001 15.6667C24.5774 15.6667 26.6667 17.756 26.6667 20.3333C26.6667 21.6583 26.1146 22.8543 25.2278 23.7038C26.8085 24.4308 28.1016 25.675 28.8904 27.2181C29.1418 27.7098 28.9469 28.3123 28.4551 28.5637C27.9634 28.815 27.3609 28.6202 27.1096 28.1284C26.1592 26.2692 24.2269 25 22 25C19.7768 25 17.8473 26.265 16.8952 28.1191C16.8472 28.2157 16.7833 28.305 16.7051 28.3827C16.6162 28.4711 16.5125 28.5407 16.4002 28.5897C16.1368 28.705 15.8474 28.6977 15.5997 28.5897C15.4865 28.5403 15.382 28.4699 15.2927 28.3805C15.2154 28.3034 15.1524 28.2148 15.1048 28.1191C14.1527 26.265 12.2232 25 9.99997 25C7.77301 25 5.84077 26.2692 4.89037 28.1284C4.63899 28.6202 4.03655 28.815 3.5448 28.5637C3.05304 28.3123 2.85818 27.7098 3.10956 27.2181C3.89839 25.675 5.1915 24.4307 6.77233 23.7037C5.88557 22.8542 5.33341 21.6583 5.33341 20.3333ZM22.0001 5C20.5273 5 19.3334 6.19391 19.3334 7.66667C19.3334 9.13943 20.5273 10.3333 22.0001 10.3333C23.4728 10.3333 24.6667 9.13943 24.6667 7.66667C24.6667 6.19391 23.4728 5 22.0001 5ZM22.0001 17.6667C20.5273 17.6667 19.3334 18.8606 19.3334 20.3333C19.3334 21.8061 20.5273 23 22.0001 23C23.4728 23 24.6667 21.8061 24.6667 20.3333C24.6667 18.8606 23.4728 17.6667 22.0001 17.6667Z" fill="black"/>
</svg>
