<svg width="16" height="16" viewBox="0 0 16 16" fill="none" xmlns="http://www.w3.org/2000/svg">
<path
    d="M11.3334 1.33334H13.1134C13.4907 1.32667 13.8573 1.45876 14.1436 1.70455C14.43 1.95034 14.6161 2.29271 14.6667 2.66667V7.33334C14.6161 7.7073 14.43 8.04967 14.1436 8.29546C13.8573 8.54125 13.4907 8.67335 13.1134 8.66667H11.3334M6.66669 10V12.6667C6.66669 13.1971 6.8774 13.7058 7.25247 14.0809C7.62755 14.456 8.13625 14.6667 8.66669 14.6667L11.3334 8.66667V1.33334H3.81335C3.4918 1.32971 3.17977 1.4424 2.93475 1.65067C2.68973 1.85894 2.52824 2.14874 2.48002 2.46667L1.56002 8.46667C1.53102 8.65777 1.5439 8.85289 1.59779 9.03851C1.65168 9.22412 1.74529 9.39581 1.87211 9.54166C1.99894 9.68752 2.15597 9.80405 2.33231 9.88319C2.50864 9.96234 2.70008 10.0022 2.89335 10H6.66669Z"
    stroke="#2B2B2B" stroke-width="1.5" stroke-linecap="round" stroke-linejoin="round" />
</svg>
