<svg width="16" height="16" viewBox="0 0 16 16" fill="none" xmlns="http://www.w3.org/2000/svg">
<path
d="M4.66671 14.6667H2.66671C2.31309 14.6667 1.97395 14.5262 1.7239 14.2762C1.47385 14.0261 1.33337 13.687 1.33337 13.3333V8.66668C1.33337 8.31305 1.47385 7.97392 1.7239 7.72387C1.97395 7.47382 2.31309 7.33334 2.66671 7.33334H4.66671M9.33337 6.00001V3.33334C9.33337 2.80291 9.12266 2.2942 8.74759 1.91913C8.37252 1.54406 7.86381 1.33334 7.33337 1.33334L4.66671 7.33334V14.6667H12.1867C12.5083 14.6703 12.8203 14.5576 13.0653 14.3493C13.3103 14.1411 13.4718 13.8513 13.52 13.5333L14.44 7.53334C14.469 7.34225 14.4562 7.14713 14.4023 6.96151C14.3484 6.77589 14.2548 6.60421 14.1279 6.45835C14.0011 6.3125 13.8441 6.19596 13.6678 6.11682C13.4914 6.03768 13.3 5.99782 13.1067 6.00001H9.33337Z"
stroke="#2B2B2B" stroke-width="1.5" stroke-linecap="round" stroke-linejoin="round" />
</svg>
