<svg width="32" height="32" viewBox="0 0 32 32" fill="none" xmlns="http://www.w3.org/2000/svg">
<path fill-rule="evenodd" clip-rule="evenodd" d="M16.2425 3.02986C16.0832 2.99005 15.9166 2.99005 15.7574 3.02986L5.09072 5.69652C4.64555 5.80782 4.33325 6.2078 4.33325 6.66667V15.2157C4.33325 20.0514 7.27398 23.5052 10.0483 25.6879C11.4455 26.7872 12.8372 27.595 13.8773 28.1278C14.3986 28.3948 14.8348 28.5944 15.1436 28.7284C15.2981 28.7954 15.4209 28.8461 15.5068 28.8806C15.5497 28.8979 15.5835 28.9112 15.6074 28.9205L15.6357 28.9314L15.6442 28.9346L15.647 28.9356L15.648 28.936C15.6484 28.9362 15.6488 28.9363 15.9976 28.0063L15.6488 28.9363C15.8752 29.0212 16.1247 29.0212 16.351 28.9363L15.9999 28C16.351 28.9363 16.3514 28.9362 16.3518 28.936L16.3529 28.9356L16.3556 28.9346L16.3641 28.9314L16.3925 28.9205C16.4164 28.9112 16.4501 28.8979 16.4931 28.8806C16.579 28.8461 16.7018 28.7954 16.8562 28.7284C17.165 28.5944 17.6012 28.3948 18.1225 28.1278C19.1626 27.595 20.5543 26.7872 21.9516 25.6879C24.7259 23.5052 27.6666 20.0514 27.6666 15.2157V6.66667C27.6666 6.2078 27.3543 5.80782 26.9091 5.69652L16.2425 3.02986ZM16.0603 26.8936L15.9999 26.9196L15.9396 26.8936C15.665 26.7745 15.2679 26.5929 14.7892 26.3477C13.8293 25.856 12.5543 25.1148 11.2849 24.116C8.72586 22.1027 6.33325 19.1643 6.33325 15.2157V7.44744L15.9999 5.03078L25.6666 7.44744V15.2157C25.6666 19.1643 23.274 22.1027 20.7149 24.116C19.4455 25.1148 18.1706 25.856 17.2107 26.3477C16.732 26.5929 16.3348 26.7745 16.0603 26.8936ZM16 11.3125C14.5101 9.96241 12.2106 10.0085 10.7759 11.4507C9.29691 12.9375 9.29691 15.346 10.7759 16.8329L15.291 21.3719C15.4787 21.5606 15.7339 21.6667 16 21.6667C16.2661 21.6667 16.5213 21.5606 16.709 21.3719L21.2241 16.8329C22.7031 15.346 22.7031 12.9375 21.2241 11.4507C19.7894 10.0085 17.4899 9.96241 16 11.3125ZM12.1939 12.8611C12.8939 12.1574 14.0267 12.1574 14.7268 12.8611L16 14.1411L17.2732 12.8611C17.9733 12.1574 19.1061 12.1574 19.8061 12.8611C20.5091 13.5678 20.5091 14.7157 19.8061 15.4224L16 19.2487L12.1939 15.4224C11.4909 14.7157 11.4909 13.5678 12.1939 12.8611Z" fill="black"/>
</svg>
