<svg width="32" height="32" viewBox="0 0 32 32" fill="none" xmlns="http://www.w3.org/2000/svg">
<path d="M17.9999 9C17.9999 10.1046 17.1045 11 15.9999 11C14.8954 11 13.9999 10.1046 13.9999 9C13.9999 7.89543 14.8954 7 15.9999 7C17.1045 7 17.9999 7.89543 17.9999 9Z" fill="black"/>
<path d="M25.9999 23C25.9999 24.1046 25.1045 25 23.9999 25C22.8954 25 21.9999 24.1046 21.9999 23C21.9999 21.8954 22.8954 21 23.9999 21C25.1045 21 25.9999 21.8954 25.9999 23Z" fill="black"/>
<path d="M9.99992 23C9.99992 24.1046 9.10449 25 7.99992 25C6.89535 25 5.99992 24.1046 5.99992 23C5.99992 21.8954 6.89535 21 7.99992 21C9.10449 21 9.99992 21.8954 9.99992 23Z" fill="black"/>
<path fill-rule="evenodd" clip-rule="evenodd" d="M27.2548 17.8609C27.6231 17.4493 28.2553 17.4143 28.6668 17.7827C30.0973 19.063 30.9999 20.9267 30.9999 23C30.9999 26.866 27.8659 30 23.9999 30C20.4735 30 17.556 27.3923 17.0708 24H7.99992V22H17.9999C18.5522 22 18.9999 22.4477 18.9999 23C18.9999 25.7614 21.2385 28 23.9999 28C26.7613 28 28.9999 25.7614 28.9999 23C28.9999 21.5193 28.3575 20.1899 27.333 19.2729C26.9215 18.9046 26.8865 18.2724 27.2548 17.8609Z" fill="black"/>
<path fill-rule="evenodd" clip-rule="evenodd" d="M16.867 9.64L11.867 18.3003C11.5908 18.7785 10.9792 18.9424 10.5009 18.6663C8.10946 17.2856 5.05151 18.1049 3.6708 20.4964C2.29009 22.8879 3.10946 25.9458 5.50093 27.3265C6.78328 28.0669 8.25575 28.1753 9.56213 27.7465C10.0869 27.5743 10.6519 27.86 10.8241 28.3848C10.9963 28.9095 10.7106 29.4745 10.1858 29.6467C8.36179 30.2454 6.29642 30.0952 4.50092 29.0586C1.15288 27.1256 0.00574994 22.8445 1.93875 19.4964C3.70198 16.4424 7.41903 15.2197 10.5995 16.4956L15.1349 8.64L16.867 9.64Z" fill="black"/>
<path fill-rule="evenodd" clip-rule="evenodd" d="M20.3431 6.501C18.9624 4.10954 15.9045 3.29016 13.513 4.67087C12.2306 5.41124 11.4006 6.63227 11.1187 7.978C11.0055 8.51856 10.4755 8.86499 9.93494 8.75177C9.39439 8.63855 9.04796 8.10857 9.16117 7.56801C9.55472 5.68901 10.7175 3.97545 12.513 2.93882C15.861 1.00583 20.1422 2.15295 22.0752 5.501C23.8384 8.55501 23.0388 12.3854 20.3436 14.5018L24.879 22.3574L23.147 23.3574L18.147 14.6972C18.0144 14.4675 17.9784 14.1945 18.0471 13.9383C18.1157 13.6822 18.2833 13.4637 18.513 13.3311C20.9045 11.9504 21.7238 8.89246 20.3431 6.501Z" fill="black"/>
</svg>
