<svg width="24" height="24" viewBox="0 0 24 24" fill="none" xmlns="http://www.w3.org/2000/svg">
<ellipse cx="5.21935" cy="5.23862" rx="2.49999" ry="2.5" stroke="black" stroke-width="1.5"/>
<ellipse cx="18.7822" cy="18.781" rx="2.49999" ry="2.5" stroke="black" stroke-width="1.5"/>
<path d="M7.67891 4.845H17.6819C19.6703 4.845 21.2822 6.4569 21.2822 8.44529V8.44529C21.2822 10.4337 19.6703 12.0456 17.6819 12.0456H15.1834M16.3185 19.155H6.27407C4.31086 19.155 2.71936 17.5635 2.71936 15.6003V15.6003C2.71936 13.6371 4.31086 12.0456 6.27408 12.0456H9.08448" stroke="black" stroke-width="1.5"/>
<path d="M11.2929 14.7929L9.20712 12.7071C8.81659 12.3165 8.81659 11.6834 9.20713 11.2928L11.293 9.20708C11.6835 8.81657 12.3166 8.81657 12.7071 9.20708L14.793 11.2928C15.1835 11.6834 15.1835 12.3165 14.793 12.7071L12.7072 14.7929C12.3166 15.1834 11.6835 15.1834 11.2929 14.7929Z" stroke="black" stroke-width="1.5"/>
</svg>
