  <svg xmlns="http://www.w3.org/2000/svg" viewBox="0 0 32 32">
  <style>
	path {
		fill: #000000;
	}
	@media (prefers-color-scheme: dark) {
		path {
			fill: #ffffff;
		}
	}
	</style>
    <path d="M23.9858449,26.9439733 C22.6256816,26.9439733 21.3904163,26.9530993 20.1556408,26.9314252 C20.0157224,26.9289807 19.8496816,26.7795437 19.7445388,26.6565067 C17.0449469,23.4961659 14.3517224,20.3299585 11.6571918,17.1650548 C11.5700082,17.0627141 11.4798857,16.9628178 11.3187429,16.7789956 L11.3187429,26.9134993 L8.00004898,26.9134993 L8.00004898,5.12209185 L11.2851102,5.12209185 L11.2851102,15.1188919 C11.4642122,14.9173067 11.5628245,14.8162696 11.6501714,14.7064326 C14.1045388,11.6257807 16.5603755,8.54643259 19.0057633,5.45877333 C19.2096816,5.20145481 19.4139265,5.08509926 19.7522122,5.09178074 C20.8939265,5.11459556 22.0362939,5.10058074 23.304702,5.10058074 C20.3082939,8.72992889 17.3708245,12.2878993 14.4217633,15.8598844 C17.5959673,19.5386104 20.7510694,23.1951733 23.9858449,26.9439733"  fill="#000000"></path>
</svg>
