<svg width="402" height="134" viewBox="0 0 402 134" fill="none" xmlns="http://www.w3.org/2000/svg">
	<style>
	path {
		fill: #000000;
	}
	@media (prefers-color-scheme: dark) {
		path {
			fill: #ffffff;
		}
	}
	</style>
<path fill-rule="evenodd" clip-rule="evenodd" d="M97.9014 129.894C89.9554 129.894 82.709 129.944 75.4626 129.844C74.663 129.844 73.6635 128.942 73.0638 128.241C57.2217 109.864 41.4795 91.4362 25.6874 73.0588C25.1876 72.4579 24.6379 71.9071 23.6884 70.8054V129.743H4.24803V3.00425H23.4885V61.141C24.5379 59.9893 25.1376 59.3884 25.6374 58.7374C40.0302 40.8107 54.4231 22.8839 68.716 4.95717C69.9154 3.45493 71.1148 2.80396 73.1138 2.80396C79.8104 2.95418 86.5071 2.85403 93.9534 2.85403C76.4121 23.9856 59.1707 44.6664 41.8793 65.4475C60.4701 86.8294 78.9609 108.111 97.9014 129.894Z" fill="#000000"/>
<path fill-rule="evenodd" clip-rule="evenodd" d="M289.706 85.9781C289.656 80.1193 288.756 75.6126 286.807 71.2561C279.011 53.78 256.473 50.0745 244.079 64.2457C235.233 74.3107 234.134 90.8353 241.58 102.002C249.326 113.569 263.569 117.475 275.213 110.865C285.258 105.157 289.256 95.8929 289.706 85.9781ZM287.657 47.8211V3.15448H305.848V129.994C301.7 129.994 297.502 130.044 293.304 129.944C292.854 129.944 292.305 129.042 292.005 128.441C290.855 126.088 289.806 123.734 288.657 121.131C283.209 126.388 276.862 129.193 269.716 130.444C248.277 134.25 227.187 121.832 220.89 101.201C215.643 84.0252 217.492 67.7008 229.186 53.3794C241.28 38.6074 263.369 33.9504 279.611 42.4631C282.36 43.9153 284.858 45.9183 287.657 47.8211Z" fill="#000000"/>
<path fill-rule="evenodd" clip-rule="evenodd" d="M380.011 77.5655C380.061 66.0484 368.717 55.783 355.873 55.5827C343.079 55.3824 331.985 65.3974 331.735 77.5655H380.011ZM331.585 92.8383C332.035 101.902 339.631 110.665 349.126 113.018C359.371 115.522 368.167 113.119 375.263 105.157C375.763 104.556 376.613 103.905 377.362 103.905C383.309 103.805 389.306 103.855 395.553 103.855C393.255 109.914 390.006 115.122 385.608 119.528C377.212 127.991 366.818 131.246 355.024 131.045C333.034 130.645 315.193 114.421 312.545 92.6881C310.995 80.2195 312.595 68.3518 319.641 57.7359C328.986 43.6149 342.43 36.9549 359.371 38.7075C376.063 40.4602 387.407 49.9744 393.854 65.0969C397.452 73.6096 398.852 82.5229 396.853 91.7367C396.803 92.0371 396.653 92.3376 396.503 92.8884H331.585V92.8383Z" fill="#000000"/>
<path fill-rule="evenodd" clip-rule="evenodd" d="M211.295 129.944H193.054V127.19C193.054 110.515 193.104 93.8398 193.004 77.215C192.954 68.0013 186.407 59.2883 177.812 56.5342C165.368 52.5783 151.725 60.9908 149.526 74.0603C149.226 75.863 149.126 77.6657 149.126 79.4684C149.076 95.2419 149.126 111.066 149.126 126.839V129.844H131.035V39.4587C135.133 39.4587 139.281 39.4086 143.379 39.5087C143.879 39.5087 144.528 40.4101 144.828 41.0611C145.978 43.3645 146.977 45.7681 148.126 48.2718C157.172 39.8092 167.917 37.4056 179.511 38.7075C194.603 40.36 207.197 52.2277 210.196 67.2501C210.895 70.7053 211.295 74.2606 211.295 77.8159C211.395 94.5409 211.345 111.316 211.345 128.041C211.395 128.542 211.345 129.092 211.295 129.944Z" fill="#000000"/>
<path fill-rule="evenodd" clip-rule="evenodd" d="M102.599 129.944H120.64V39.5087H102.599V129.944Z" fill="#000000"/>
<path fill-rule="evenodd" clip-rule="evenodd" d="M122.839 14.1709C122.839 20.28 117.692 25.2875 111.545 25.2374C105.598 25.1874 100.45 20.1298 100.35 14.221C100.3 8.31218 105.598 3.00426 111.595 3.00426C117.742 3.00426 122.839 8.11188 122.839 14.1709Z" fill="#000000"/>
</svg>
